<?xml version="1.0" encoding="UTF-8" standalone="no"?>
<!-- architecture.json graph byoxpc; dot sha256 cd4809c379d11d19e8ff416f9ee04a570c8d94a8ff125f3a60196036c5642fd8 -->
<!DOCTYPE svg PUBLIC "-//W3C//DTD SVG 1.1//EN"
 "http://www.w3.org/Graphics/SVG/1.1/DTD/svg11.dtd">
<!-- Generated by graphviz version 16.1.0 (20260904.0139)
 -->
<!-- Title: byoxpc Pages: 1 -->
<svg width="1406pt" height="672pt"
 viewBox="0.00 0.00 1406.00 672.00" xmlns="http://www.w3.org/2000/svg" xmlns:xlink="http://www.w3.org/1999/xlink">
<g id="graph0" class="graph" transform="scale(1 1) rotate(0) translate(21.6 650.54)">
<title>byoxpc</title>
<polygon fill="white" stroke="none" points="-21.6,21.6 -21.6,-650.54 1384.6,-650.54 1384.6,21.6 -21.6,21.6"/>
<text xml:space="preserve" text-anchor="middle" x="681.5" y="-614.49" font-family="Helvetica,sans-Serif" font-size="11.00">The BYOXPC apparatus</text>
<g id="clust1" class="cluster">
<title>cluster_installation</title>
<polygon fill="white" stroke="#888888" stroke-dasharray="5,2" points="465,-320.44 465,-533.19 899,-533.19 899,-320.44 465,-320.44"/>
<text xml:space="preserve" text-anchor="middle" x="682" y="-519.69" font-family="Helvetica,sans-Serif" font-size="10.00">installation</text>
</g>
<g id="clust2" class="cluster">
<title>cluster_launch</title>
<polygon fill="white" stroke="#888888" stroke-dasharray="5,2" points="8,-130.25 8,-410.94 269,-410.94 269,-130.25 8,-130.25"/>
<text xml:space="preserve" text-anchor="middle" x="138.5" y="-397.44" font-family="Helvetica,sans-Serif" font-size="10.00">launch and connection</text>
</g>
<g id="clust3" class="cluster">
<title>cluster_selection</title>
<polygon fill="white" stroke="#888888" stroke-dasharray="5,2" points="1010,-320.44 1010,-410.94 1355,-410.94 1355,-320.44 1010,-320.44"/>
<text xml:space="preserve" text-anchor="middle" x="1182.5" y="-397.44" font-family="Helvetica,sans-Serif" font-size="10.00">selection and provenance</text>
</g>
<g id="clust4" class="cluster">
<title>cluster_reached</title>
<polygon fill="white" stroke="#888888" stroke-dasharray="5,2" points="365,-8 365,-98.5 680,-98.5 680,-8 365,-8"/>
<text xml:space="preserve" text-anchor="middle" x="522.5" y="-85" font-family="Helvetica,sans-Serif" font-size="10.00">the processes the policy reaches</text>
</g>
<g id="clust5" class="cluster">
<title>cluster_maintenance</title>
<polygon fill="white" stroke="#888888" stroke-dasharray="5,2" points="52,-442.69 52,-533.19 457,-533.19 457,-442.69 52,-442.69"/>
<text xml:space="preserve" text-anchor="middle" x="254.5" y="-519.69" font-family="Helvetica,sans-Serif" font-size="10.00">maintenance</text>
</g>
<!-- bundle_copy -->
<g id="node1" class="node">
<title>bundle_copy</title>
<g id="a_node1"><a xlink:href="ARCHITECTURE.md#the-byoxpc-apparatus-nodes" xlink:title="bundle_copy: copied XPC bundle">
<polygon fill="#e8f0fe" stroke="#2f5597" points="885,-486.69 791,-486.69 791,-450.69 891,-450.69 891,-480.69 885,-486.69"/>
<polyline fill="none" stroke="#2f5597" points="885,-486.69 885,-480.69"/>
<polyline fill="none" stroke="#2f5597" points="891,-480.69 885,-480.69"/>
<text xml:space="preserve" text-anchor="middle" x="841" y="-470.44" font-family="Helvetica,sans-Serif" font-size="10.00">copied XPC bundle</text>
<text xml:space="preserve" text-anchor="middle" x="841" y="-459.19" font-family="Helvetica,sans-Serif" font-size="10.00">bundle_copy</text>
</a>
</g>
</g>
<!-- provenance -->
<g id="node12" class="node">
<title>provenance</title>
<g id="a_node12"><a xlink:href="ARCHITECTURE.md#the-byoxpc-apparatus-nodes" xlink:title="provenance: runner provenance and binary baselines">
<polygon fill="#e8f0fe" stroke="#2f5597" points="1200.25,-364.44 1017.75,-364.44 1017.75,-328.44 1206.25,-328.44 1206.25,-358.44 1200.25,-364.44"/>
<polyline fill="none" stroke="#2f5597" points="1200.25,-364.44 1200.25,-358.44"/>
<polyline fill="none" stroke="#2f5597" points="1206.25,-358.44 1200.25,-358.44"/>
<text xml:space="preserve" text-anchor="middle" x="1112" y="-348.19" font-family="Helvetica,sans-Serif" font-size="10.00">runner provenance and binary baselines</text>
<text xml:space="preserve" text-anchor="middle" x="1112" y="-336.94" font-family="Helvetica,sans-Serif" font-size="10.00">provenance</text>
</a>
</g>
</g>
<!-- bundle_copy&#45;&gt;provenance -->
<g id="edge15" class="edge">
<title>bundle_copy&#45;&gt;provenance</title>
<g id="a_edge15"><a xlink:href="ARCHITECTURE.md#the-byoxpc-apparatus-edges" xlink:title="X15: Binaries::observe hashes the service, worker and validator files before invocation">
<path fill="none" stroke="#8a7400" d="M891.39,-460.31C923.26,-454.43 964.76,-444.5 999,-428.69 1030.67,-414.06 1062.56,-390.09 1084.35,-371.97"/>
<polygon fill="#8a7400" stroke="#8a7400" points="1086.52,-374.72 1091.88,-365.58 1081.99,-369.38 1086.52,-374.72"/>
</a>
</g>
<g id="a_edge15&#45;label"><a xlink:href="ARCHITECTURE.md#the-byoxpc-apparatus-edges" xlink:title="X15 hashes before invocation">
<text xml:space="preserve" text-anchor="middle" x="1076.56" y="-420.14" font-family="Helvetica,sans-Serif" font-size="9.00">X15 hashes before invocation</text>
</a>
</g>
</g>
<!-- worker -->
<g id="node13" class="node">
<title>worker</title>
<g id="a_node13"><a xlink:href="ARCHITECTURE.md#the-byoxpc-apparatus-nodes" xlink:title="worker: pw&#45;probe&#45;runner in the copy">
<path fill="#ffe2b8" stroke="#9a5b00" d="M497.38,-52C497.38,-52 384.62,-52 384.62,-52 378.62,-52 372.62,-46 372.62,-40 372.62,-40 372.62,-28 372.62,-28 372.62,-22 378.62,-16 384.62,-16 384.62,-16 497.38,-16 497.38,-16 503.38,-16 509.38,-22 509.38,-28 509.38,-28 509.38,-40 509.38,-40 509.38,-46 503.38,-52 497.38,-52"/>
<text xml:space="preserve" text-anchor="middle" x="441" y="-35.75" font-family="Helvetica,sans-Serif" font-size="10.00">pw&#45;probe&#45;runner in the copy</text>
<text xml:space="preserve" text-anchor="middle" x="441" y="-24.5" font-family="Helvetica,sans-Serif" font-size="10.00">worker</text>
</a>
</g>
</g>
<!-- bundle_copy&#45;&gt;worker -->
<g id="edge6" class="edge">
<title>bundle_copy&#45;&gt;worker</title>
<g id="a_edge6"><a xlink:href="ARCHITECTURE.md#the-byoxpc-apparatus-edges" xlink:title="X6: the worker arrives with the build&#39;s signature and is not re&#45;signed">
<path fill="none" stroke="#444444" stroke-dasharray="1,5" d="M891.26,-460.03C912.4,-454.49 935.8,-444.98 952,-428.69 978.93,-401.6 980,-385.63 980,-347.44 980,-347.44 980,-347.44 980,-155.25 980,-52.69 616.7,-137.88 522,-98.5 500.9,-89.73 480.66,-73.87 465.7,-60.2"/>
<polygon fill="#444444" stroke="#444444" points="468.3,-57.84 458.63,-53.51 463.49,-62.92 468.3,-57.84"/>
</a>
</g>
<g id="a_edge6&#45;label"><a xlink:href="ARCHITECTURE.md#the-byoxpc-apparatus-edges" xlink:title="X6 build signature">
<text xml:space="preserve" text-anchor="middle" x="1017.12" y="-247.67" font-family="Helvetica,sans-Serif" font-size="9.00">X6 build signature</text>
</a>
</g>
</g>
<!-- validator -->
<g id="node14" class="node">
<title>validator</title>
<g id="a_node14"><a xlink:href="ARCHITECTURE.md#the-byoxpc-apparatus-nodes" xlink:title="validator: sb_api_validator in the copy">
<path fill="#f2f2f2" stroke="#444444" d="M659.75,-52C659.75,-52 546.25,-52 546.25,-52 540.25,-52 534.25,-46 534.25,-40 534.25,-40 534.25,-28 534.25,-28 534.25,-22 540.25,-16 546.25,-16 546.25,-16 659.75,-16 659.75,-16 665.75,-16 671.75,-22 671.75,-28 671.75,-28 671.75,-40 671.75,-40 671.75,-46 665.75,-52 659.75,-52"/>
<text xml:space="preserve" text-anchor="middle" x="603" y="-35.75" font-family="Helvetica,sans-Serif" font-size="10.00">sb_api_validator in the copy</text>
<text xml:space="preserve" text-anchor="middle" x="603" y="-24.5" font-family="Helvetica,sans-Serif" font-size="10.00">validator</text>
</a>
</g>
</g>
<!-- bundle_copy&#45;&gt;validator -->
<g id="edge7" class="edge">
<title>bundle_copy&#45;&gt;validator</title>
<g id="a_edge7"><a xlink:href="ARCHITECTURE.md#the-byoxpc-apparatus-edges" xlink:title="X7: the validator arrives with the build&#39;s signature and is not re&#45;signed">
<path fill="none" stroke="#444444" stroke-dasharray="1,5" d="M890.27,-450.28C899.33,-444.8 907.62,-437.73 913,-428.69 925.32,-407.99 1016.64,-552.71 904,-320.44 872.35,-255.17 704.11,-115.86 633.86,-59.46"/>
<polygon fill="#444444" stroke="#444444" points="636.19,-56.84 626.19,-53.33 631.81,-62.31 636.19,-56.84"/>
</a>
</g>
<g id="a_edge7&#45;label"><a xlink:href="ARCHITECTURE.md#the-byoxpc-apparatus-edges" xlink:title="X7 build signature">
<text xml:space="preserve" text-anchor="middle" x="907.2" y="-247.67" font-family="Helvetica,sans-Serif" font-size="9.00">X7 build signature</text>
</a>
</g>
</g>
<!-- entitlements_plist -->
<g id="node2" class="node">
<title>entitlements_plist</title>
<g id="a_node2"><a xlink:href="ARCHITECTURE.md#the-byoxpc-apparatus-nodes" xlink:title="entitlements_plist: the installer&#39;s entitlements plist">
<polygon fill="#e8f0fe" stroke="#2f5597" points="759.5,-486.69 614.5,-486.69 614.5,-450.69 765.5,-450.69 765.5,-480.69 759.5,-486.69"/>
<polyline fill="none" stroke="#2f5597" points="759.5,-486.69 759.5,-480.69"/>
<polyline fill="none" stroke="#2f5597" points="765.5,-480.69 759.5,-480.69"/>
<text xml:space="preserve" text-anchor="middle" x="690" y="-470.44" font-family="Helvetica,sans-Serif" font-size="10.00">the installer&#39;s entitlements plist</text>
<text xml:space="preserve" text-anchor="middle" x="690" y="-459.19" font-family="Helvetica,sans-Serif" font-size="10.00">entitlements_plist</text>
</a>
</g>
</g>
<!-- signing -->
<g id="node4" class="node">
<title>signing</title>
<g id="a_node4"><a xlink:href="ARCHITECTURE.md#the-byoxpc-apparatus-nodes" xlink:title="signing: codesign of the bundle">
<path fill="#e6f4ea" stroke="#2e7d32" d="M879.12,-364.44C879.12,-364.44 788.88,-364.44 788.88,-364.44 782.88,-364.44 776.88,-358.44 776.88,-352.44 776.88,-352.44 776.88,-340.44 776.88,-340.44 776.88,-334.44 782.88,-328.44 788.88,-328.44 788.88,-328.44 879.12,-328.44 879.12,-328.44 885.12,-328.44 891.12,-334.44 891.12,-340.44 891.12,-340.44 891.12,-352.44 891.12,-352.44 891.12,-358.44 885.12,-364.44 879.12,-364.44"/>
<text xml:space="preserve" text-anchor="middle" x="834" y="-348.19" font-family="Helvetica,sans-Serif" font-size="10.00">codesign of the bundle</text>
<text xml:space="preserve" text-anchor="middle" x="834" y="-336.94" font-family="Helvetica,sans-Serif" font-size="10.00">signing</text>
</a>
</g>
</g>
<!-- entitlements_plist&#45;&gt;signing -->
<g id="edge3" class="edge">
<title>entitlements_plist&#45;&gt;signing</title>
<g id="a_edge3"><a xlink:href="ARCHITECTURE.md#the-byoxpc-apparatus-edges" xlink:title="X3: supplied entitlements">
<path fill="none" stroke="#8a7400" d="M696.94,-450.62C702.22,-439.84 710.54,-426.56 722,-418.94 738.19,-408.17 747.62,-419.64 765,-410.94 783.15,-401.85 799.99,-386.56 812.49,-373.25"/>
<polygon fill="#8a7400" stroke="#8a7400" points="814.93,-375.77 819.03,-366 809.73,-371.08 814.93,-375.77"/>
</a>
</g>
<g id="a_edge3&#45;label"><a xlink:href="ARCHITECTURE.md#the-byoxpc-apparatus-edges" xlink:title="X3 entitlements">
<text xml:space="preserve" text-anchor="middle" x="753.5" y="-420.14" font-family="Helvetica,sans-Serif" font-size="9.00">X3 entitlements</text>
</a>
</g>
</g>
<!-- install -->
<g id="node3" class="node">
<title>install</title>
<g id="a_node3"><a xlink:href="ARCHITECTURE.md#the-byoxpc-apparatus-nodes" xlink:title="install: runner install">
<path fill="#e6f4ea" stroke="#2e7d32" d="M577.75,-486.69C577.75,-486.69 530.25,-486.69 530.25,-486.69 524.25,-486.69 518.25,-480.69 518.25,-474.69 518.25,-474.69 518.25,-462.69 518.25,-462.69 518.25,-456.69 524.25,-450.69 530.25,-450.69 530.25,-450.69 577.75,-450.69 577.75,-450.69 583.75,-450.69 589.75,-456.69 589.75,-462.69 589.75,-462.69 589.75,-474.69 589.75,-474.69 589.75,-480.69 583.75,-486.69 577.75,-486.69"/>
<text xml:space="preserve" text-anchor="middle" x="554" y="-470.44" font-family="Helvetica,sans-Serif" font-size="10.00">runner install</text>
<text xml:space="preserve" text-anchor="middle" x="554" y="-459.19" font-family="Helvetica,sans-Serif" font-size="10.00">install</text>
</a>
</g>
</g>
<!-- install&#45;&gt;signing -->
<g id="edge4" class="edge">
<title>install&#45;&gt;signing</title>
<g id="a_edge4"><a xlink:href="ARCHITECTURE.md#the-byoxpc-apparatus-edges" xlink:title="X4: codesign &#45;&#45;force &#45;&#45;options runtime &#45;s identity &#45;&#45;entitlements plist bundle">
<path fill="none" stroke="#222222" stroke-width="2" d="M586.94,-450.25C591.96,-447.67 597.1,-445.08 602,-442.69 624.83,-431.54 629.38,-425.23 654,-418.94 677.96,-412.81 742.3,-420.75 765,-410.94 783.88,-402.78 800.93,-387.21 813.36,-373.53"/>
<polygon fill="#222222" stroke="#222222" stroke-width="2" points="814.94,-377.05 818.84,-367.2 809.65,-372.46 814.94,-377.05"/>
</a>
</g>
<g id="a_edge4&#45;label"><a xlink:href="ARCHITECTURE.md#the-byoxpc-apparatus-edges" xlink:title="X4 codesign">
<text xml:space="preserve" text-anchor="middle" x="679.5" y="-420.14" font-family="Helvetica,sans-Serif" font-size="9.00">X4 codesign</text>
</a>
</g>
</g>
<!-- plist -->
<g id="node5" class="node">
<title>plist</title>
<g id="a_node5"><a xlink:href="ARCHITECTURE.md#the-byoxpc-apparatus-nodes" xlink:title="plist: LaunchAgent or LaunchDaemon plist">
<polygon fill="#e8f0fe" stroke="#2f5597" points="643.25,-364.44 472.75,-364.44 472.75,-328.44 649.25,-328.44 649.25,-358.44 643.25,-364.44"/>
<polyline fill="none" stroke="#2f5597" points="643.25,-364.44 643.25,-358.44"/>
<polyline fill="none" stroke="#2f5597" points="649.25,-358.44 643.25,-358.44"/>
<text xml:space="preserve" text-anchor="middle" x="561" y="-348.19" font-family="Helvetica,sans-Serif" font-size="10.00">LaunchAgent or LaunchDaemon plist</text>
<text xml:space="preserve" text-anchor="middle" x="561" y="-336.94" font-family="Helvetica,sans-Serif" font-size="10.00">plist</text>
</a>
</g>
</g>
<!-- install&#45;&gt;plist -->
<g id="edge8" class="edge">
<title>install&#45;&gt;plist</title>
<g id="a_edge8"><a xlink:href="ARCHITECTURE.md#the-byoxpc-apparatus-edges" xlink:title="X8: build_launchd_plist and write_launchd_plist">
<path fill="none" stroke="#2e7d32" stroke-width="2" d="M521.85,-450.39C511.14,-442.12 502.85,-431.31 507,-418.94 512.65,-402.08 524.01,-386.03 534.87,-373.42"/>
<polygon fill="#2e7d32" stroke="#2e7d32" stroke-width="2" points="536.44,-376.89 540.56,-367.13 531.25,-372.2 536.44,-376.89"/>
</a>
</g>
<g id="a_edge8&#45;label"><a xlink:href="ARCHITECTURE.md#the-byoxpc-apparatus-edges" xlink:title="X8 plist">
<text xml:space="preserve" text-anchor="middle" x="522" y="-420.14" font-family="Helvetica,sans-Serif" font-size="9.00">X8 plist</text>
</a>
</g>
</g>
<!-- registry -->
<g id="node6" class="node">
<title>registry</title>
<g id="a_node6"><a xlink:href="ARCHITECTURE.md#the-byoxpc-apparatus-nodes" xlink:title="registry: runner registry">
<polygon fill="#e8f0fe" stroke="#2f5597" points="746.12,-364.44 673.88,-364.44 673.88,-328.44 752.12,-328.44 752.12,-358.44 746.12,-364.44"/>
<polyline fill="none" stroke="#2f5597" points="746.12,-364.44 746.12,-358.44"/>
<polyline fill="none" stroke="#2f5597" points="752.12,-358.44 746.12,-358.44"/>
<text xml:space="preserve" text-anchor="middle" x="713" y="-348.19" font-family="Helvetica,sans-Serif" font-size="10.00">runner registry</text>
<text xml:space="preserve" text-anchor="middle" x="713" y="-336.94" font-family="Helvetica,sans-Serif" font-size="10.00">registry</text>
</a>
</g>
</g>
<!-- install&#45;&gt;registry -->
<g id="edge11" class="edge">
<title>install&#45;&gt;registry</title>
<g id="a_edge11"><a xlink:href="ARCHITECTURE.md#the-byoxpc-apparatus-edges" xlink:title="X11: install_record: pending before the plist, installed after the bootstrap">
<path fill="none" stroke="#2e7d32" stroke-width="2" d="M554.06,-450.62C555.07,-439.85 558.31,-426.56 567.5,-418.94 583.72,-405.48 643.4,-420.84 662,-410.94 677.32,-402.78 689.67,-387.85 698.38,-374.52"/>
<polygon fill="#2e7d32" stroke="#2e7d32" stroke-width="2" points="700.53,-377.72 702.74,-367.36 694.55,-374.08 700.53,-377.72"/>
</a>
</g>
<g id="a_edge11&#45;label"><a xlink:href="ARCHITECTURE.md#the-byoxpc-apparatus-edges" xlink:title="X11 record">
<text xml:space="preserve" text-anchor="middle" x="589.25" y="-420.14" font-family="Helvetica,sans-Serif" font-size="9.00">X11 record</text>
</a>
</g>
</g>
<!-- host -->
<g id="node8" class="node">
<title>host</title>
<g id="a_node8"><a xlink:href="ARCHITECTURE.md#the-byoxpc-apparatus-nodes" xlink:title="host: PWRunner as a Mach service">
<path fill="#f2f2f2" stroke="#444444" d="M248.62,-174.25C248.62,-174.25 125.38,-174.25 125.38,-174.25 119.38,-174.25 113.38,-168.25 113.38,-162.25 113.38,-162.25 113.38,-150.25 113.38,-150.25 113.38,-144.25 119.38,-138.25 125.38,-138.25 125.38,-138.25 248.62,-138.25 248.62,-138.25 254.62,-138.25 260.62,-144.25 260.62,-150.25 260.62,-150.25 260.62,-162.25 260.62,-162.25 260.62,-168.25 254.62,-174.25 248.62,-174.25"/>
<text xml:space="preserve" text-anchor="middle" x="187" y="-158" font-family="Helvetica,sans-Serif" font-size="10.00">PWRunner as a Mach service</text>
<text xml:space="preserve" text-anchor="middle" x="187" y="-146.75" font-family="Helvetica,sans-Serif" font-size="10.00">host</text>
</a>
</g>
</g>
<!-- signing&#45;&gt;host -->
<g id="edge5" class="edge">
<title>signing&#45;&gt;host</title>
<g id="a_edge5"><a xlink:href="ARCHITECTURE.md#the-byoxpc-apparatus-edges" xlink:title="X5: the host executable carries the identity and entitlements; read back by entitlements_from_codesign">
<path fill="none" stroke="#2e7d32" stroke-width="2" d="M787.39,-328.03C779.93,-325.4 772.28,-322.78 765,-320.44 588.02,-263.47 377.16,-206.69 265.48,-177.48"/>
<polygon fill="#2e7d32" stroke="#2e7d32" stroke-width="2" points="268.15,-174.56 257.59,-175.41 266.38,-181.33 268.15,-174.56"/>
</a>
</g>
<g id="a_edge5&#45;label"><a xlink:href="ARCHITECTURE.md#the-byoxpc-apparatus-edges" xlink:title="X5 signs the host">
<text xml:space="preserve" text-anchor="middle" x="651.07" y="-247.67" font-family="Helvetica,sans-Serif" font-size="9.00">X5 signs the host</text>
</a>
</g>
</g>
<!-- launchd -->
<g id="node7" class="node">
<title>launchd</title>
<g id="a_node7"><a xlink:href="ARCHITECTURE.md#the-byoxpc-apparatus-nodes" xlink:title="launchd: launchd">
<ellipse fill="none" stroke="#666666" stroke-dasharray="5,2" cx="226" cy="-251.34" rx="35.18" ry="21.57"/>
<text xml:space="preserve" text-anchor="middle" x="226" y="-253.09" font-family="Helvetica,sans-Serif" font-size="10.00">launchd</text>
<text xml:space="preserve" text-anchor="middle" x="226" y="-241.84" font-family="Helvetica,sans-Serif" font-size="10.00">launchd</text>
</a>
</g>
</g>
<!-- plist&#45;&gt;launchd -->
<g id="edge9" class="edge">
<title>plist&#45;&gt;launchd</title>
<g id="a_edge9"><a xlink:href="ARCHITECTURE.md#the-byoxpc-apparatus-edges" xlink:title="X9: launchctl bootstrap into the gui or system domain">
<path fill="none" stroke="#666666" stroke-width="2" d="M498.38,-328.04C431.13,-309.35 326.14,-280.17 268.11,-264.05"/>
<polygon fill="#666666" stroke="#666666" stroke-width="2" points="259.84,-261.75 270.68,-260.09 262.45,-261.95 269.61,-263.94 269.48,-264.43 269.34,-264.91 262.18,-262.92 268.27,-268.76 259.84,-261.75"/>
</a>
</g>
<g id="a_edge9&#45;label"><a xlink:href="ARCHITECTURE.md#the-byoxpc-apparatus-edges" xlink:title="X9 bootstrap">
<text xml:space="preserve" text-anchor="middle" x="439.43" y="-297.89" font-family="Helvetica,sans-Serif" font-size="9.00">X9 bootstrap</text>
</a>
</g>
</g>
<!-- registry&#45;&gt;provenance -->
<g id="edge14" class="edge">
<title>registry&#45;&gt;provenance</title>
<g id="a_edge14"><a xlink:href="ARCHITECTURE.md#the-byoxpc-apparatus-edges" xlink:title="X14: runner_provenance_from_target copies kind, service, id and the host&#39;s entitlements">
<path fill="none" stroke="#8a7400" d="M722.03,-364.9C730.53,-379.98 744.83,-400.24 764,-409.37 811.14,-431.85 948.45,-422.5 999,-409.37 1027.65,-401.93 1056.75,-385.47 1078.25,-371.25"/>
<polygon fill="#8a7400" stroke="#8a7400" points="1080.01,-374.28 1086.31,-365.76 1076.07,-368.49 1080.01,-374.28"/>
</a>
</g>
<g id="a_edge14&#45;label"><a xlink:href="ARCHITECTURE.md#the-byoxpc-apparatus-edges" xlink:title="X14 provenance">
<text xml:space="preserve" text-anchor="middle" x="825" y="-420.14" font-family="Helvetica,sans-Serif" font-size="9.00">X14 provenance</text>
</a>
</g>
</g>
<!-- launchd&#45;&gt;host -->
<g id="edge10" class="edge">
<title>launchd&#45;&gt;host</title>
<g id="a_edge10"><a xlink:href="ARCHITECTURE.md#the-byoxpc-apparatus-edges" xlink:title="X10: start on demand for the Mach service; default respawn throttle between launches">
<path fill="none" stroke="#666666" stroke-width="2" d="M217.54,-230.14C211.95,-216.8 204.56,-199.16 198.45,-184.57"/>
<polygon fill="#666666" stroke="#666666" stroke-width="2" points="195.21,-176.84 203.22,-184.33 196.66,-179.01 199.53,-185.87 199.07,-186.07 198.61,-186.26 195.74,-179.4 194.92,-187.8 195.21,-176.84"/>
</a>
</g>
<g id="a_edge10&#45;label"><a xlink:href="ARCHITECTURE.md#the-byoxpc-apparatus-edges" xlink:title="X10 start on demand">
<text xml:space="preserve" text-anchor="middle" x="248.88" y="-197.45" font-family="Helvetica,sans-Serif" font-size="9.00">X10 start on demand</text>
</a>
</g>
</g>
<!-- host&#45;&gt;worker -->
<g id="edge18" class="edge">
<title>host&#45;&gt;worker</title>
<g id="a_edge18"><a xlink:href="ARCHITECTURE.md#the-byoxpc-apparatus-edges" xlink:title="X18: posix_spawn of the copy&#39;s own worker">
<path fill="none" stroke="#222222" stroke-width="2" d="M223.93,-137.76C268.93,-116.46 344.99,-80.45 394.09,-57.21"/>
<polygon fill="#222222" stroke="#222222" stroke-width="2" points="394.16,-61.05 401.7,-53.61 391.16,-54.72 394.16,-61.05"/>
</a>
</g>
<g id="a_edge18&#45;label"><a xlink:href="ARCHITECTURE.md#the-byoxpc-apparatus-edges" xlink:title="X18 spawn">
<text xml:space="preserve" text-anchor="middle" x="306.66" y="-107.7" font-family="Helvetica,sans-Serif" font-size="9.00">X18 spawn</text>
</a>
</g>
</g>
<!-- host&#45;&gt;validator -->
<g id="edge19" class="edge">
<title>host&#45;&gt;validator</title>
<g id="a_edge19"><a xlink:href="ARCHITECTURE.md#the-byoxpc-apparatus-edges" xlink:title="X19: posix_spawn of the copy&#39;s own validator">
<path fill="none" stroke="#222222" stroke-width="2" d="M260.88,-153.14C330.83,-148.77 437.43,-135.89 522,-98.5 542.76,-89.32 562.87,-73.61 577.86,-60.11"/>
<polygon fill="#222222" stroke="#222222" stroke-width="2" points="578.9,-63.92 583.84,-54.55 574.13,-58.8 578.9,-63.92"/>
</a>
</g>
<g id="a_edge19&#45;label"><a xlink:href="ARCHITECTURE.md#the-byoxpc-apparatus-edges" xlink:title="X19 spawn">
<text xml:space="preserve" text-anchor="middle" x="519.44" y="-107.7" font-family="Helvetica,sans-Serif" font-size="9.00">X19 spawn</text>
</a>
</g>
</g>
<!-- client -->
<g id="node9" class="node">
<title>client</title>
<g id="a_node9"><a xlink:href="ARCHITECTURE.md#the-byoxpc-apparatus-nodes" xlink:title="client: pw&#45;runner&#45;client &#45;&#45;mach&#45;service">
<path fill="#f2f2f2" stroke="#444444" d="M156.25,-364.44C156.25,-364.44 27.75,-364.44 27.75,-364.44 21.75,-364.44 15.75,-358.44 15.75,-352.44 15.75,-352.44 15.75,-340.44 15.75,-340.44 15.75,-334.44 21.75,-328.44 27.75,-328.44 27.75,-328.44 156.25,-328.44 156.25,-328.44 162.25,-328.44 168.25,-334.44 168.25,-340.44 168.25,-340.44 168.25,-352.44 168.25,-352.44 168.25,-358.44 162.25,-364.44 156.25,-364.44"/>
<text xml:space="preserve" text-anchor="middle" x="92" y="-348.19" font-family="Helvetica,sans-Serif" font-size="10.00">pw&#45;runner&#45;client &#45;&#45;mach&#45;service</text>
<text xml:space="preserve" text-anchor="middle" x="92" y="-336.94" font-family="Helvetica,sans-Serif" font-size="10.00">client</text>
</a>
</g>
</g>
<!-- caller_auth -->
<g id="node10" class="node">
<title>caller_auth</title>
<g id="a_node10"><a xlink:href="ARCHITECTURE.md#the-byoxpc-apparatus-nodes" xlink:title="caller_auth: caller authorization">
<polygon fill="none" stroke="#8e24aa" stroke-dasharray="5,2" points="165.81,-241.67 165.81,-261.01 121.99,-274.69 60.01,-274.69 16.19,-261.01 16.19,-241.67 60.01,-228 121.99,-228 165.81,-241.67"/>
<text xml:space="preserve" text-anchor="middle" x="91" y="-253.09" font-family="Helvetica,sans-Serif" font-size="10.00">caller authorization</text>
<text xml:space="preserve" text-anchor="middle" x="91" y="-241.84" font-family="Helvetica,sans-Serif" font-size="10.00">caller_auth</text>
</a>
</g>
</g>
<!-- client&#45;&gt;caller_auth -->
<g id="edge16" class="edge">
<title>client&#45;&gt;caller_auth</title>
<g id="a_edge16"><a xlink:href="ARCHITECTURE.md#the-byoxpc-apparatus-edges" xlink:title="X16: NSXPCConnection(machServiceName:), privileged for system scope">
<path fill="none" stroke="#2f5597" stroke-dasharray="5,2" d="M91.82,-328.36C91.69,-316.63 91.52,-300.66 91.37,-286.39"/>
<polygon fill="#2f5597" stroke="#2f5597" points="94.87,-286.4 91.26,-276.44 87.87,-286.48 94.87,-286.4"/>
</a>
</g>
<g id="a_edge16&#45;label"><a xlink:href="ARCHITECTURE.md#the-byoxpc-apparatus-edges" xlink:title="X16 connect">
<text xml:space="preserve" text-anchor="middle" x="117.06" y="-297.89" font-family="Helvetica,sans-Serif" font-size="9.00">X16 connect</text>
</a>
</g>
</g>
<!-- caller_auth&#45;&gt;host -->
<g id="edge17" class="edge">
<title>caller_auth&#45;&gt;host</title>
<g id="a_edge17"><a xlink:href="ARCHITECTURE.md#the-byoxpc-apparatus-edges" xlink:title="X17: shouldAcceptNewConnection: the caller&#39;s Team ID equals the host&#39;s, and the identifier allowlist if present">
<path fill="none" stroke="#2f5597" d="M99.71,-227.75C104.54,-217.29 111.34,-205.22 120,-196.25 125.66,-190.39 132.38,-185.13 139.35,-180.5"/>
<polygon fill="#2f5597" stroke="#2f5597" points="140.98,-183.61 147.65,-175.38 137.3,-177.65 140.98,-183.61"/>
</a>
</g>
<g id="a_edge17&#45;label"><a xlink:href="ARCHITECTURE.md#the-byoxpc-apparatus-edges" xlink:title="X17 Team ID equal">
<text xml:space="preserve" text-anchor="middle" x="159" y="-197.45" font-family="Helvetica,sans-Serif" font-size="9.00">X17 Team ID equal</text>
</a>
</g>
</g>
<!-- selector -->
<g id="node11" class="node">
<title>selector</title>
<g id="a_node11"><a xlink:href="ARCHITECTURE.md#the-byoxpc-apparatus-nodes" xlink:title="selector: request runner selector">
<polygon fill="#e8f0fe" stroke="#2f5597" points="1340.88,-364.44 1231.12,-364.44 1231.12,-328.44 1346.88,-328.44 1346.88,-358.44 1340.88,-364.44"/>
<polyline fill="none" stroke="#2f5597" points="1340.88,-364.44 1340.88,-358.44"/>
<polyline fill="none" stroke="#2f5597" points="1346.88,-358.44 1340.88,-358.44"/>
<text xml:space="preserve" text-anchor="middle" x="1289" y="-348.19" font-family="Helvetica,sans-Serif" font-size="10.00">request runner selector</text>
<text xml:space="preserve" text-anchor="middle" x="1289" y="-336.94" font-family="Helvetica,sans-Serif" font-size="10.00">selector</text>
</a>
</g>
</g>
<!-- selector&#45;&gt;registry -->
<g id="edge13" class="edge">
<title>selector&#45;&gt;registry</title>
<g id="a_edge13"><a xlink:href="ARCHITECTURE.md#the-byoxpc-apparatus-edges" xlink:title="X13: resolve by id or service; required entitlements must be a subset of the recorded host entitlements">
<path fill="none" stroke="#8a7400" d="M1275.21,-364.76C1262.52,-379.96 1242.19,-400.48 1219,-409.37 1171.8,-427.48 809.63,-431.13 764,-409.37 748.72,-402.09 736.54,-387.75 727.92,-374.6"/>
<polygon fill="#8a7400" stroke="#8a7400" points="731,-372.92 722.81,-366.2 725.02,-376.56 731,-372.92"/>
</a>
</g>
<g id="a_edge13&#45;label"><a xlink:href="ARCHITECTURE.md#the-byoxpc-apparatus-edges" xlink:title="X13 resolve">
<text xml:space="preserve" text-anchor="middle" x="888" y="-420.14" font-family="Helvetica,sans-Serif" font-size="9.00">X13 resolve</text>
</a>
</g>
</g>
<!-- verify -->
<g id="node15" class="node">
<title>verify</title>
<g id="a_node15"><a xlink:href="ARCHITECTURE.md#the-byoxpc-apparatus-nodes" xlink:title="verify: runner verify">
<path fill="#e6f4ea" stroke="#2e7d32" d="M118,-486.69C118,-486.69 72,-486.69 72,-486.69 66,-486.69 60,-480.69 60,-474.69 60,-474.69 60,-462.69 60,-462.69 60,-456.69 66,-450.69 72,-450.69 72,-450.69 118,-450.69 118,-450.69 124,-450.69 130,-456.69 130,-462.69 130,-462.69 130,-474.69 130,-474.69 130,-480.69 124,-486.69 118,-486.69"/>
<text xml:space="preserve" text-anchor="middle" x="95" y="-470.44" font-family="Helvetica,sans-Serif" font-size="10.00">runner verify</text>
<text xml:space="preserve" text-anchor="middle" x="95" y="-459.19" font-family="Helvetica,sans-Serif" font-size="10.00">verify</text>
</a>
</g>
</g>
<!-- verify&#45;&gt;client -->
<g id="edge20" class="edge">
<title>verify&#45;&gt;client</title>
<g id="a_edge20"><a xlink:href="ARCHITECTURE.md#the-byoxpc-apparatus-edges" xlink:title="X20: a fixed allow&#45;all request on the client&#39;s stdin">
<path fill="none" stroke="#2f5597" stroke-dasharray="5,2" d="M94.56,-450.2C94.08,-430.77 93.29,-399.08 92.71,-376.03"/>
<polygon fill="#2f5597" stroke="#2f5597" points="96.21,-375.98 92.46,-366.07 89.22,-376.15 96.21,-375.98"/>
</a>
</g>
<g id="a_edge20&#45;label"><a xlink:href="ARCHITECTURE.md#the-byoxpc-apparatus-edges" xlink:title="X20 allow&#45;all request">
<text xml:space="preserve" text-anchor="middle" x="137.07" y="-420.14" font-family="Helvetica,sans-Serif" font-size="9.00">X20 allow&#45;all request</text>
</a>
</g>
</g>
<!-- validate -->
<g id="node16" class="node">
<title>validate</title>
<g id="a_node16"><a xlink:href="ARCHITECTURE.md#the-byoxpc-apparatus-nodes" xlink:title="validate: runner validate">
<path fill="#e6f4ea" stroke="#2e7d32" d="M436.88,-486.69C436.88,-486.69 381.12,-486.69 381.12,-486.69 375.12,-486.69 369.12,-480.69 369.12,-474.69 369.12,-474.69 369.12,-462.69 369.12,-462.69 369.12,-456.69 375.12,-450.69 381.12,-450.69 381.12,-450.69 436.88,-450.69 436.88,-450.69 442.88,-450.69 448.88,-456.69 448.88,-462.69 448.88,-462.69 448.88,-474.69 448.88,-474.69 448.88,-480.69 442.88,-486.69 436.88,-486.69"/>
<text xml:space="preserve" text-anchor="middle" x="409" y="-470.44" font-family="Helvetica,sans-Serif" font-size="10.00">runner validate</text>
<text xml:space="preserve" text-anchor="middle" x="409" y="-459.19" font-family="Helvetica,sans-Serif" font-size="10.00">validate</text>
</a>
</g>
</g>
<!-- validate&#45;&gt;registry -->
<g id="edge21" class="edge">
<title>validate&#45;&gt;registry</title>
<g id="a_edge21"><a xlink:href="ARCHITECTURE.md#the-byoxpc-apparatus-edges" xlink:title="X21: re&#45;reads signature and entitlements from the recorded path">
<path fill="none" stroke="#8e24aa" stroke-dasharray="5,2" d="M418.77,-450.42C426.13,-439.27 437.32,-425.62 451.25,-418.94 493.51,-398.66 620.13,-432 662,-410.94 677.6,-403.09 690.02,-388.03 698.7,-374.55"/>
<polygon fill="#8e24aa" stroke="#8e24aa" points="701.69,-376.37 703.81,-365.99 695.68,-372.78 701.69,-376.37"/>
</a>
</g>
<g id="a_edge21&#45;label"><a xlink:href="ARCHITECTURE.md#the-byoxpc-apparatus-edges" xlink:title="X21 re&#45;read">
<text xml:space="preserve" text-anchor="middle" x="475.62" y="-420.14" font-family="Helvetica,sans-Serif" font-size="9.00">X21 re&#45;read</text>
</a>
</g>
</g>
<!-- remove -->
<g id="node17" class="node">
<title>remove</title>
<g id="a_node17"><a xlink:href="ARCHITECTURE.md#the-byoxpc-apparatus-nodes" xlink:title="remove: runner remove">
<path fill="#e6f4ea" stroke="#2e7d32" d="M332.12,-486.69C332.12,-486.69 277.88,-486.69 277.88,-486.69 271.88,-486.69 265.88,-480.69 265.88,-474.69 265.88,-474.69 265.88,-462.69 265.88,-462.69 265.88,-456.69 271.88,-450.69 277.88,-450.69 277.88,-450.69 332.12,-450.69 332.12,-450.69 338.12,-450.69 344.12,-456.69 344.12,-462.69 344.12,-462.69 344.12,-474.69 344.12,-474.69 344.12,-480.69 338.12,-486.69 332.12,-486.69"/>
<text xml:space="preserve" text-anchor="middle" x="305" y="-470.44" font-family="Helvetica,sans-Serif" font-size="10.00">runner remove</text>
<text xml:space="preserve" text-anchor="middle" x="305" y="-459.19" font-family="Helvetica,sans-Serif" font-size="10.00">remove</text>
</a>
</g>
</g>
<!-- remove&#45;&gt;registry -->
<g id="edge23" class="edge">
<title>remove&#45;&gt;registry</title>
<g id="a_edge23"><a xlink:href="ARCHITECTURE.md#the-byoxpc-apparatus-edges" xlink:title="X23: pending_cleanup first; retired only after verified absence of service and plist">
<path fill="none" stroke="#2e7d32" stroke-width="2" d="M328.81,-450.23C345.62,-438.98 369.17,-425.31 392.25,-418.94 421.15,-410.95 635.16,-424.3 662,-410.94 677.63,-403.15 690.05,-388.1 698.72,-374.6"/>
<polygon fill="#2e7d32" stroke="#2e7d32" stroke-width="2" points="700.94,-377.71 703.06,-367.33 694.93,-374.13 700.94,-377.71"/>
</a>
</g>
<g id="a_edge23&#45;label"><a xlink:href="ARCHITECTURE.md#the-byoxpc-apparatus-edges" xlink:title="X23 retire">
<text xml:space="preserve" text-anchor="middle" x="412.12" y="-420.14" font-family="Helvetica,sans-Serif" font-size="9.00">X23 retire</text>
</a>
</g>
</g>
<!-- remove&#45;&gt;launchd -->
<g id="edge22" class="edge">
<title>remove&#45;&gt;launchd</title>
<g id="a_edge22"><a xlink:href="ARCHITECTURE.md#the-byoxpc-apparatus-edges" xlink:title="X22: bootout, then re&#45;read for up to one second of teardown">
<path fill="none" stroke="#666666" stroke-width="2" d="M303.53,-450.44C302.57,-441.06 301.1,-429.3 299,-418.94 289.97,-374.33 289.99,-361.8 271,-320.44 264.61,-306.52 255.59,-292.21 247.3,-280.33"/>
<polygon fill="#666666" stroke="#666666" stroke-width="2" points="242.3,-273.35 251.78,-278.85 244.2,-275.14 248.53,-281.18 248.13,-281.48 247.72,-281.77 243.39,-275.72 244.47,-284.1 242.3,-273.35"/>
</a>
</g>
<g id="a_edge22&#45;label"><a xlink:href="ARCHITECTURE.md#the-byoxpc-apparatus-edges" xlink:title="X22 bootout">
<text xml:space="preserve" text-anchor="middle" x="322.06" y="-342.76" font-family="Helvetica,sans-Serif" font-size="9.00">X22 bootout</text>
</a>
</g>
</g>
<!-- reconcile -->
<g id="node18" class="node">
<title>reconcile</title>
<g id="a_node18"><a xlink:href="ARCHITECTURE.md#the-byoxpc-apparatus-nodes" xlink:title="reconcile: runner reconcile">
<path fill="#e6f4ea" stroke="#2e7d32" d="M228.5,-486.69C228.5,-486.69 167.5,-486.69 167.5,-486.69 161.5,-486.69 155.5,-480.69 155.5,-474.69 155.5,-474.69 155.5,-462.69 155.5,-462.69 155.5,-456.69 161.5,-450.69 167.5,-450.69 167.5,-450.69 228.5,-450.69 228.5,-450.69 234.5,-450.69 240.5,-456.69 240.5,-462.69 240.5,-462.69 240.5,-474.69 240.5,-474.69 240.5,-480.69 234.5,-486.69 228.5,-486.69"/>
<text xml:space="preserve" text-anchor="middle" x="198" y="-470.44" font-family="Helvetica,sans-Serif" font-size="10.00">runner reconcile</text>
<text xml:space="preserve" text-anchor="middle" x="198" y="-459.19" font-family="Helvetica,sans-Serif" font-size="10.00">reconcile</text>
</a>
</g>
</g>
<!-- reconcile&#45;&gt;plist -->
<g id="edge25" class="edge">
<title>reconcile&#45;&gt;plist</title>
<g id="a_edge25"><a xlink:href="ARCHITECTURE.md#the-byoxpc-apparatus-edges" xlink:title="X25: inspect_plist lists candidate plists without changes">
<path fill="none" stroke="#8e24aa" stroke-dasharray="5,2" d="M220.68,-450.39C236.44,-439.37 258.4,-425.89 280,-418.94 319.07,-406.36 331.82,-419.31 372,-410.94 419.03,-401.14 470.63,-383.3 508.01,-369.02"/>
<polygon fill="#8e24aa" stroke="#8e24aa" points="509.17,-372.32 517.23,-365.45 506.64,-365.79 509.17,-372.32"/>
</a>
</g>
<g id="a_edge25&#45;label"><a xlink:href="ARCHITECTURE.md#the-byoxpc-apparatus-edges" xlink:title="X25 inspect">
<text xml:space="preserve" text-anchor="middle" x="304" y="-420.14" font-family="Helvetica,sans-Serif" font-size="9.00">X25 inspect</text>
</a>
</g>
</g>
<!-- reconcile&#45;&gt;launchd -->
<g id="edge24" class="edge">
<title>reconcile&#45;&gt;launchd</title>
<g id="a_edge24"><a xlink:href="ARCHITECTURE.md#the-byoxpc-apparatus-edges" xlink:title="X24: inspect_service lists candidate services without changes">
<path fill="none" stroke="#8e24aa" stroke-dasharray="5,2" d="M200.24,-450.43C204.94,-414.35 215.84,-330.46 221.85,-284.26"/>
<polygon fill="#8e24aa" stroke="#8e24aa" points="225.29,-284.98 223.1,-274.62 218.34,-284.08 225.29,-284.98"/>
</a>
</g>
<g id="a_edge24&#45;label"><a xlink:href="ARCHITECTURE.md#the-byoxpc-apparatus-edges" xlink:title="X24 inspect">
<text xml:space="preserve" text-anchor="middle" x="241.03" y="-342.76" font-family="Helvetica,sans-Serif" font-size="9.00">X24 inspect</text>
</a>
</g>
</g>
<!-- user -->
<g id="node19" class="node">
<title>user</title>
<g id="a_node19"><a xlink:href="ARCHITECTURE.md#the-byoxpc-apparatus-nodes" xlink:title="user: the installer">
<text xml:space="preserve" text-anchor="middle" x="841" y="-592.69" font-family="Helvetica,sans-Serif" font-size="10.00">the installer</text>
<text xml:space="preserve" text-anchor="middle" x="841" y="-581.44" font-family="Helvetica,sans-Serif" font-size="10.00">user</text>
</a>
</g>
</g>
<!-- user&#45;&gt;bundle_copy -->
<g id="edge1" class="edge">
<title>user&#45;&gt;bundle_copy</title>
<g id="a_edge1"><a xlink:href="ARCHITECTURE.md#the-byoxpc-apparatus-edges" xlink:title="X1: copies the shipped PWRunner.xpc">
<path fill="none" stroke="#444444" stroke-dasharray="1,5" d="M841,-572.96C841,-553.56 841,-521.48 841,-498.21"/>
<polygon fill="#444444" stroke="#444444" points="844.5,-498.48 841,-488.48 837.5,-498.48 844.5,-498.48"/>
</a>
</g>
<g id="a_edge1&#45;label"><a xlink:href="ARCHITECTURE.md#the-byoxpc-apparatus-edges" xlink:title="X1 copy">
<text xml:space="preserve" text-anchor="middle" x="857.5" y="-542.39" font-family="Helvetica,sans-Serif" font-size="9.00">X1 copy</text>
</a>
</g>
</g>
<!-- user&#45;&gt;install -->
<g id="edge2" class="edge">
<title>user&#45;&gt;install</title>
<g id="a_edge2"><a xlink:href="ARCHITECTURE.md#the-byoxpc-apparatus-edges" xlink:title="X2: runner install with &#45;&#45;bundle, &#45;&#45;identity, &#45;&#45;entitlements, &#45;&#45;scope and optional &#45;&#45;env">
<path fill="none" stroke="#2f5597" stroke-dasharray="5,2" d="M808.12,-589.04C759.35,-586.28 666.64,-575.38 602,-533.19 588.12,-524.13 576.71,-509.62 568.5,-496.76"/>
<polygon fill="#2f5597" stroke="#2f5597" points="571.54,-495.01 563.4,-488.23 565.53,-498.6 571.54,-495.01"/>
</a>
</g>
<g id="a_edge2&#45;label"><a xlink:href="ARCHITECTURE.md#the-byoxpc-apparatus-edges" xlink:title="X2 argv">
<text xml:space="preserve" text-anchor="middle" x="646.66" y="-542.39" font-family="Helvetica,sans-Serif" font-size="9.00">X2 argv</text>
</a>
</g>
</g>
<!-- user&#45;&gt;selector -->
<g id="edge12" class="edge">
<title>user&#45;&gt;selector</title>
<g id="a_edge12"><a xlink:href="ARCHITECTURE.md#the-byoxpc-apparatus-edges" xlink:title="X12: the specimen&#39;s runner field: mode, id or service, required_entitlements">
<path fill="none" stroke="#2f5597" stroke-dasharray="5,2" d="M874.06,-578.09C941.97,-552.95 1100.7,-490.06 1219,-410.94 1235.45,-399.94 1251.93,-385.21 1264.77,-372.71"/>
<polygon fill="#2f5597" stroke="#2f5597" points="1266.95,-375.48 1271.57,-365.94 1262.01,-370.52 1266.95,-375.48"/>
</a>
</g>
<g id="a_edge12&#45;label"><a xlink:href="ARCHITECTURE.md#the-byoxpc-apparatus-edges" xlink:title="X12 runner field">
<text xml:space="preserve" text-anchor="middle" x="1197.97" y="-465.01" font-family="Helvetica,sans-Serif" font-size="9.00">X12 runner field</text>
</a>
</g>
</g>
</g>
</svg>
