<?xml version="1.0" encoding="UTF-8" standalone="no"?>
<!-- build.json figure steps; dot sha256 7f528af956e336c4c938b6865d80cecef2563229e8e8fadf1ba60f5d634a6113 -->
<!DOCTYPE svg PUBLIC "-//W3C//DTD SVG 1.1//EN"
 "http://www.w3.org/Graphics/SVG/1.1/DTD/svg11.dtd">
<!-- Generated by graphviz version 16.1.0 (20260904.0139)
 -->
<!-- Title: build_steps Pages: 1 -->
<svg width="462pt" height="1766pt"
 viewBox="0.00 0.00 462.00 1766.00" xmlns="http://www.w3.org/2000/svg" xmlns:xlink="http://www.w3.org/1999/xlink">
<g id="graph0" class="graph" transform="scale(1 1) rotate(0) translate(21.6 1744.85)">
<title>build_steps</title>
<polygon fill="white" stroke="none" points="-21.6,21.6 -21.6,-1744.85 439.98,-1744.85 439.98,21.6 -21.6,21.6"/>
<text xml:space="preserve" text-anchor="middle" x="209.19" y="-1708.8" font-family="Helvetica,sans-Serif" font-size="11.00">One build in time</text>
<!-- make_build -->
<g id="node1" class="node">
<title>make_build</title>
<g id="a_node1"><a xlink:href="BUILD.md#one-build-in-time" xlink:title="make_build: reads IDENTITY and DIST_DIR from the make command line; writes nothing; runs build.sh with them">
<path fill="#fff4e0" stroke="#444444" d="M335.12,-1703.25C335.12,-1703.25 60.37,-1703.25 60.37,-1703.25 54.37,-1703.25 48.38,-1697.25 48.38,-1691.25 48.38,-1691.25 48.38,-1673.5 48.38,-1673.5 48.38,-1667.5 54.38,-1661.5 60.38,-1661.5 60.38,-1661.5 335.12,-1661.5 335.12,-1661.5 341.12,-1661.5 347.12,-1667.5 347.12,-1673.5 347.12,-1673.5 347.12,-1691.25 347.12,-1691.25 347.12,-1697.25 341.12,-1703.25 335.12,-1703.25"/>
<text xml:space="preserve" text-anchor="middle" x="197.75" y="-1689.75" font-family="Helvetica,sans-Serif" font-size="10.00">make_build</text>
<text xml:space="preserve" text-anchor="middle" x="197.75" y="-1678.5" font-family="Helvetica,sans-Serif" font-size="10.00">[build] build, sign and embed evidence into …/PolicyWitness.app</text>
<text xml:space="preserve" text-anchor="middle" x="197.75" y="-1667.25" font-family="Helvetica,sans-Serif" font-size="10.00">1 refusal(s)</text>
</a>
</g>
</g>
<!-- admission -->
<g id="node2" class="node">
<title>admission</title>
<g id="a_node2"><a xlink:href="BUILD.md#one-build-in-time" xlink:title="admission: reads BUILD_XPC, PW_INSPECTION and the argument list; &#45;&#45;help prints the usage and exits before any check, after the knobs are validated; writes nothing">
<path fill="#f2f2f2" stroke="#444444" d="M244.38,-1643.5C244.38,-1643.5 151.12,-1643.5 151.12,-1643.5 145.12,-1643.5 139.12,-1637.5 139.12,-1631.5 139.12,-1631.5 139.12,-1613.75 139.12,-1613.75 139.12,-1607.75 145.12,-1601.75 151.12,-1601.75 151.12,-1601.75 244.38,-1601.75 244.38,-1601.75 250.38,-1601.75 256.38,-1607.75 256.38,-1613.75 256.38,-1613.75 256.38,-1631.5 256.38,-1631.5 256.38,-1637.5 250.38,-1643.5 244.38,-1643.5"/>
<text xml:space="preserve" text-anchor="middle" x="197.75" y="-1630" font-family="Helvetica,sans-Serif" font-size="10.00">admission</text>
<text xml:space="preserve" text-anchor="middle" x="197.75" y="-1618.75" font-family="Helvetica,sans-Serif" font-size="10.00">(before the first banner)</text>
<text xml:space="preserve" text-anchor="middle" x="197.75" y="-1607.5" font-family="Helvetica,sans-Serif" font-size="10.00">2 refusal(s)</text>
</a>
</g>
</g>
<!-- make_build&#45;&gt;admission -->
<g id="edge1" class="edge">
<title>make_build&#45;&gt;admission</title>
<path fill="none" stroke="#444444" d="M197.75,-1661.18C197.75,-1659.25 197.75,-1657.27 197.75,-1655.28"/>
<polygon fill="#444444" stroke="#444444" points="201.25,-1655.42 197.75,-1645.42 194.25,-1655.42 201.25,-1655.42"/>
</g>
<!-- check_limits -->
<g id="node3" class="node">
<title>check_limits</title>
<g id="a_node3"><a xlink:href="BUILD.md#one-build-in-time" xlink:title="check_limits: reads docs/limits.json and the documents it renders; writes nothing">
<path fill="#f2f2f2" stroke="#444444" d="M260.88,-1583.75C260.88,-1583.75 134.62,-1583.75 134.62,-1583.75 128.62,-1583.75 122.62,-1577.75 122.62,-1571.75 122.62,-1571.75 122.62,-1554 122.62,-1554 122.62,-1548 128.62,-1542 134.62,-1542 134.62,-1542 260.88,-1542 260.88,-1542 266.88,-1542 272.88,-1548 272.88,-1554 272.88,-1554 272.88,-1571.75 272.88,-1571.75 272.88,-1577.75 266.88,-1583.75 260.88,-1583.75"/>
<text xml:space="preserve" text-anchor="middle" x="197.75" y="-1570.25" font-family="Helvetica,sans-Serif" font-size="10.00">check_limits</text>
<text xml:space="preserve" text-anchor="middle" x="197.75" y="-1559" font-family="Helvetica,sans-Serif" font-size="10.00">Checking limits documentation</text>
<text xml:space="preserve" text-anchor="middle" x="197.75" y="-1547.75" font-family="Helvetica,sans-Serif" font-size="10.00">1 refusal(s)</text>
</a>
</g>
</g>
<!-- admission&#45;&gt;check_limits -->
<g id="edge2" class="edge">
<title>admission&#45;&gt;check_limits</title>
<path fill="none" stroke="#444444" d="M197.75,-1601.43C197.75,-1599.5 197.75,-1597.52 197.75,-1595.53"/>
<polygon fill="#444444" stroke="#444444" points="201.25,-1595.67 197.75,-1585.67 194.25,-1595.67 201.25,-1595.67"/>
</g>
<!-- check_contract -->
<g id="node4" class="node">
<title>check_contract</title>
<g id="a_node4"><a xlink:href="BUILD.md#one-build-in-time" xlink:title="check_contract: reads docs/contract.json, docs/architecture.json and their generated copies; writes nothing">
<path fill="#f2f2f2" stroke="#444444" d="M253.38,-1524C253.38,-1524 142.12,-1524 142.12,-1524 136.12,-1524 130.12,-1518 130.12,-1512 130.12,-1512 130.12,-1494.25 130.12,-1494.25 130.12,-1488.25 136.12,-1482.25 142.12,-1482.25 142.12,-1482.25 253.38,-1482.25 253.38,-1482.25 259.38,-1482.25 265.38,-1488.25 265.38,-1494.25 265.38,-1494.25 265.38,-1512 265.38,-1512 265.38,-1518 259.38,-1524 253.38,-1524"/>
<text xml:space="preserve" text-anchor="middle" x="197.75" y="-1510.5" font-family="Helvetica,sans-Serif" font-size="10.00">check_contract</text>
<text xml:space="preserve" text-anchor="middle" x="197.75" y="-1499.25" font-family="Helvetica,sans-Serif" font-size="10.00">Checking contract versions</text>
<text xml:space="preserve" text-anchor="middle" x="197.75" y="-1488" font-family="Helvetica,sans-Serif" font-size="10.00">2 refusal(s)</text>
</a>
</g>
</g>
<!-- check_limits&#45;&gt;check_contract -->
<g id="edge3" class="edge">
<title>check_limits&#45;&gt;check_contract</title>
<path fill="none" stroke="#444444" d="M197.75,-1541.68C197.75,-1539.75 197.75,-1537.77 197.75,-1535.78"/>
<polygon fill="#444444" stroke="#444444" points="201.25,-1535.92 197.75,-1525.92 194.25,-1535.92 201.25,-1535.92"/>
</g>
<!-- check_build_doc -->
<g id="node5" class="node">
<title>check_build_doc</title>
<g id="a_node5"><a xlink:href="BUILD.md#one-build-in-time" xlink:title="check_build_doc: reads docs/build.json, build.sh, meson.build, the Makefile, the inventories, the baseline and the generated copies; writes nothing">
<path fill="#f2f2f2" stroke="#444444" d="M259.38,-1464.25C259.38,-1464.25 136.12,-1464.25 136.12,-1464.25 130.12,-1464.25 124.12,-1458.25 124.12,-1452.25 124.12,-1452.25 124.12,-1434.5 124.12,-1434.5 124.12,-1428.5 130.12,-1422.5 136.12,-1422.5 136.12,-1422.5 259.38,-1422.5 259.38,-1422.5 265.38,-1422.5 271.38,-1428.5 271.38,-1434.5 271.38,-1434.5 271.38,-1452.25 271.38,-1452.25 271.38,-1458.25 265.38,-1464.25 259.38,-1464.25"/>
<text xml:space="preserve" text-anchor="middle" x="197.75" y="-1450.75" font-family="Helvetica,sans-Serif" font-size="10.00">check_build_doc</text>
<text xml:space="preserve" text-anchor="middle" x="197.75" y="-1439.5" font-family="Helvetica,sans-Serif" font-size="10.00">Checking build documentation</text>
<text xml:space="preserve" text-anchor="middle" x="197.75" y="-1428.25" font-family="Helvetica,sans-Serif" font-size="10.00">1 refusal(s)</text>
</a>
</g>
</g>
<!-- check_contract&#45;&gt;check_build_doc -->
<g id="edge4" class="edge">
<title>check_contract&#45;&gt;check_build_doc</title>
<path fill="none" stroke="#444444" d="M197.75,-1481.93C197.75,-1480 197.75,-1478.02 197.75,-1476.03"/>
<polygon fill="#444444" stroke="#444444" points="201.25,-1476.17 197.75,-1466.17 194.25,-1476.17 201.25,-1476.17"/>
</g>
<!-- check_identity -->
<g id="node6" class="node">
<title>check_identity</title>
<g id="a_node6"><a xlink:href="BUILD.md#one-build-in-time" xlink:title="check_identity: reads the identity inputs and the three generated copies; writes nothing">
<path fill="#f2f2f2" stroke="#444444" d="M258.62,-1404.5C258.62,-1404.5 136.88,-1404.5 136.88,-1404.5 130.88,-1404.5 124.88,-1398.5 124.88,-1392.5 124.88,-1392.5 124.88,-1374.75 124.88,-1374.75 124.88,-1368.75 130.88,-1362.75 136.88,-1362.75 136.88,-1362.75 258.62,-1362.75 258.62,-1362.75 264.62,-1362.75 270.62,-1368.75 270.62,-1374.75 270.62,-1374.75 270.62,-1392.5 270.62,-1392.5 270.62,-1398.5 264.62,-1404.5 258.62,-1404.5"/>
<text xml:space="preserve" text-anchor="middle" x="197.75" y="-1391" font-family="Helvetica,sans-Serif" font-size="10.00">check_identity</text>
<text xml:space="preserve" text-anchor="middle" x="197.75" y="-1379.75" font-family="Helvetica,sans-Serif" font-size="10.00">Checking host/worker identity</text>
<text xml:space="preserve" text-anchor="middle" x="197.75" y="-1368.5" font-family="Helvetica,sans-Serif" font-size="10.00">1 refusal(s)</text>
</a>
</g>
</g>
<!-- check_build_doc&#45;&gt;check_identity -->
<g id="edge5" class="edge">
<title>check_build_doc&#45;&gt;check_identity</title>
<path fill="none" stroke="#444444" d="M197.75,-1422.18C197.75,-1420.25 197.75,-1418.27 197.75,-1416.28"/>
<polygon fill="#444444" stroke="#444444" points="201.25,-1416.42 197.75,-1406.42 194.25,-1416.42 201.25,-1416.42"/>
</g>
<!-- stamp -->
<g id="node7" class="node">
<title>stamp</title>
<g id="a_node7"><a xlink:href="BUILD.md#one-build-in-time" xlink:title="stamp: reads git describe, rev&#45;parse and rev&#45;list, or PW_VERSION and PW_BUILD_NUMBER from the environment; writes the four stamp variables for Cargo and the plists">
<path fill="#f2f2f2" stroke="#444444" d="M243.25,-1344.75C243.25,-1344.75 152.25,-1344.75 152.25,-1344.75 146.25,-1344.75 140.25,-1338.75 140.25,-1332.75 140.25,-1332.75 140.25,-1320.75 140.25,-1320.75 140.25,-1314.75 146.25,-1308.75 152.25,-1308.75 152.25,-1308.75 243.25,-1308.75 243.25,-1308.75 249.25,-1308.75 255.25,-1314.75 255.25,-1320.75 255.25,-1320.75 255.25,-1332.75 255.25,-1332.75 255.25,-1338.75 249.25,-1344.75 243.25,-1344.75"/>
<text xml:space="preserve" text-anchor="middle" x="197.75" y="-1328.5" font-family="Helvetica,sans-Serif" font-size="10.00">stamp</text>
<text xml:space="preserve" text-anchor="middle" x="197.75" y="-1317.25" font-family="Helvetica,sans-Serif" font-size="10.00">Build stamp: … (…) …</text>
</a>
</g>
</g>
<!-- check_identity&#45;&gt;stamp -->
<g id="edge6" class="edge">
<title>check_identity&#45;&gt;stamp</title>
<path fill="none" stroke="#444444" d="M197.75,-1362.5C197.75,-1360.53 197.75,-1358.49 197.75,-1356.45"/>
<polygon fill="#444444" stroke="#444444" points="201.25,-1356.49 197.75,-1346.49 194.25,-1356.49 201.25,-1356.49"/>
</g>
<!-- minimum -->
<g id="node8" class="node">
<title>minimum</title>
<g id="a_node8"><a xlink:href="BUILD.md#one-build-in-time" xlink:title="minimum: reads LSMinimumSystemVersion in Info.plist; writes MACOSX_DEPLOYMENT_TARGET for Cargo">
<path fill="#f2f2f2" stroke="#444444" d="M325.75,-1290.75C325.75,-1290.75 69.75,-1290.75 69.75,-1290.75 63.75,-1290.75 57.75,-1284.75 57.75,-1278.75 57.75,-1278.75 57.75,-1261 57.75,-1261 57.75,-1255 63.75,-1249 69.75,-1249 69.75,-1249 325.75,-1249 325.75,-1249 331.75,-1249 337.75,-1255 337.75,-1261 337.75,-1261 337.75,-1278.75 337.75,-1278.75 337.75,-1284.75 331.75,-1290.75 325.75,-1290.75"/>
<text xml:space="preserve" text-anchor="middle" x="197.75" y="-1277.25" font-family="Helvetica,sans-Serif" font-size="10.00">minimum</text>
<text xml:space="preserve" text-anchor="middle" x="197.75" y="-1266" font-family="Helvetica,sans-Serif" font-size="10.00">Supported macOS (Info.plist LSMinimumSystemVersion): …</text>
<text xml:space="preserve" text-anchor="middle" x="197.75" y="-1254.75" font-family="Helvetica,sans-Serif" font-size="10.00">1 refusal(s)</text>
</a>
</g>
</g>
<!-- stamp&#45;&gt;minimum -->
<g id="edge7" class="edge">
<title>stamp&#45;&gt;minimum</title>
<path fill="none" stroke="#444444" d="M197.75,-1308.39C197.75,-1306.49 197.75,-1304.51 197.75,-1302.51"/>
<polygon fill="#444444" stroke="#444444" points="201.25,-1302.51 197.75,-1292.51 194.25,-1302.51 201.25,-1302.51"/>
</g>
<!-- sdk -->
<g id="node9" class="node">
<title>sdk</title>
<g id="a_node9"><a xlink:href="BUILD.md#one-build-in-time" xlink:title="sdk: reads the SDK path xcrun reports under DEVELOPER_DIR; writes SDKROOT for Cargo and Meson">
<path fill="#f2f2f2" stroke="#444444" d="M299.88,-1231C299.88,-1231 95.62,-1231 95.62,-1231 89.63,-1231 83.62,-1225 83.62,-1219 83.62,-1219 83.62,-1201.25 83.62,-1201.25 83.62,-1195.25 89.62,-1189.25 95.62,-1189.25 95.62,-1189.25 299.88,-1189.25 299.88,-1189.25 305.88,-1189.25 311.88,-1195.25 311.88,-1201.25 311.88,-1201.25 311.88,-1219 311.88,-1219 311.88,-1225 305.88,-1231 299.88,-1231"/>
<text xml:space="preserve" text-anchor="middle" x="197.75" y="-1217.5" font-family="Helvetica,sans-Serif" font-size="10.00">sdk</text>
<text xml:space="preserve" text-anchor="middle" x="197.75" y="-1206.25" font-family="Helvetica,sans-Serif" font-size="10.00">Selecting the macOS SDK (xcrun &#45;&#45;sdk macosx)</text>
<text xml:space="preserve" text-anchor="middle" x="197.75" y="-1195" font-family="Helvetica,sans-Serif" font-size="10.00">1 refusal(s)</text>
</a>
</g>
</g>
<!-- minimum&#45;&gt;sdk -->
<g id="edge8" class="edge">
<title>minimum&#45;&gt;sdk</title>
<path fill="none" stroke="#444444" d="M197.75,-1248.68C197.75,-1246.75 197.75,-1244.77 197.75,-1242.78"/>
<polygon fill="#444444" stroke="#444444" points="201.25,-1242.92 197.75,-1232.92 194.25,-1242.92 201.25,-1242.92"/>
</g>
<!-- builddir -->
<g id="node10" class="node">
<title>builddir</title>
<g id="a_node10"><a xlink:href="BUILD.md#one-build-in-time" xlink:title="builddir: reads builddir/meson&#45;info/meson&#45;info.json when the directory is configured; writes nothing">
<path fill="#f2f2f2" stroke="#444444" d="M277,-1171.25C277,-1171.25 118.5,-1171.25 118.5,-1171.25 112.5,-1171.25 106.5,-1165.25 106.5,-1159.25 106.5,-1159.25 106.5,-1141.5 106.5,-1141.5 106.5,-1135.5 112.5,-1129.5 118.5,-1129.5 118.5,-1129.5 277,-1129.5 277,-1129.5 283,-1129.5 289,-1135.5 289,-1141.5 289,-1141.5 289,-1159.25 289,-1159.25 289,-1165.25 283,-1171.25 277,-1171.25"/>
<text xml:space="preserve" text-anchor="middle" x="197.75" y="-1157.75" font-family="Helvetica,sans-Serif" font-size="10.00">builddir</text>
<text xml:space="preserve" text-anchor="middle" x="197.75" y="-1146.5" font-family="Helvetica,sans-Serif" font-size="10.00">Checking the native build directory: …</text>
<text xml:space="preserve" text-anchor="middle" x="197.75" y="-1135.25" font-family="Helvetica,sans-Serif" font-size="10.00">2 refusal(s)</text>
</a>
</g>
</g>
<!-- sdk&#45;&gt;builddir -->
<g id="edge9" class="edge">
<title>sdk&#45;&gt;builddir</title>
<path fill="none" stroke="#444444" d="M197.75,-1188.93C197.75,-1187 197.75,-1185.02 197.75,-1183.03"/>
<polygon fill="#444444" stroke="#444444" points="201.25,-1183.17 197.75,-1173.17 194.25,-1183.17 201.25,-1183.17"/>
</g>
<!-- identity -->
<g id="node11" class="node">
<title>identity</title>
<g id="a_node11"><a xlink:href="BUILD.md#one-build-in-time" xlink:title="identity: reads IDENTITY and the keychain listing; the two knobs, for Meson&#39;s options and RUSTFLAGS; writes RUSTFLAGS, when inspection is on and it was unset or empty">
<path fill="#f2f2f2" stroke="#444444" d="M256.75,-1111.5C256.75,-1111.5 138.75,-1111.5 138.75,-1111.5 132.75,-1111.5 126.75,-1105.5 126.75,-1099.5 126.75,-1099.5 126.75,-1081.75 126.75,-1081.75 126.75,-1075.75 132.75,-1069.75 138.75,-1069.75 138.75,-1069.75 256.75,-1069.75 256.75,-1069.75 262.75,-1069.75 268.75,-1075.75 268.75,-1081.75 268.75,-1081.75 268.75,-1099.5 268.75,-1099.5 268.75,-1105.5 262.75,-1111.5 256.75,-1111.5"/>
<text xml:space="preserve" text-anchor="middle" x="197.75" y="-1098" font-family="Helvetica,sans-Serif" font-size="10.00">identity</text>
<text xml:space="preserve" text-anchor="middle" x="197.75" y="-1086.75" font-family="Helvetica,sans-Serif" font-size="10.00">Checking the signing identity</text>
<text xml:space="preserve" text-anchor="middle" x="197.75" y="-1075.5" font-family="Helvetica,sans-Serif" font-size="10.00">3 refusal(s)</text>
</a>
</g>
</g>
<!-- builddir&#45;&gt;identity -->
<g id="edge10" class="edge">
<title>builddir&#45;&gt;identity</title>
<path fill="none" stroke="#444444" d="M197.75,-1129.18C197.75,-1127.25 197.75,-1125.27 197.75,-1123.28"/>
<polygon fill="#444444" stroke="#444444" points="201.25,-1123.42 197.75,-1113.42 194.25,-1123.42 201.25,-1123.42"/>
</g>
<!-- cargo -->
<g id="node12" class="node">
<title>cargo</title>
<g id="a_node12"><a xlink:href="BUILD.md#one-build-in-time" xlink:title="cargo: reads cargo on PATH with its configuration, caches and registries; controller/ sources, the stamp variables, MACOSX_DEPLOYMENT_TARGET, SDKROOT and RUSTFLAGS; the artifact paths Cargo reports; writes controller/target/release/ under the pinned output directory, and the messages file Cargo reports its artifacts in">
<path fill="#f2f2f2" stroke="#444444" d="M260.88,-1051.75C260.88,-1051.75 134.62,-1051.75 134.62,-1051.75 128.62,-1051.75 122.62,-1045.75 122.62,-1039.75 122.62,-1039.75 122.62,-1022 122.62,-1022 122.62,-1016 128.62,-1010 134.62,-1010 134.62,-1010 260.88,-1010 260.88,-1010 266.88,-1010 272.88,-1016 272.88,-1022 272.88,-1022 272.88,-1039.75 272.88,-1039.75 272.88,-1045.75 266.88,-1051.75 260.88,-1051.75"/>
<text xml:space="preserve" text-anchor="middle" x="197.75" y="-1038.25" font-family="Helvetica,sans-Serif" font-size="10.00">cargo</text>
<text xml:space="preserve" text-anchor="middle" x="197.75" y="-1027" font-family="Helvetica,sans-Serif" font-size="10.00">Building Rust controller + tools</text>
<text xml:space="preserve" text-anchor="middle" x="197.75" y="-1015.75" font-family="Helvetica,sans-Serif" font-size="10.00">6 refusal(s)</text>
</a>
</g>
</g>
<!-- identity&#45;&gt;cargo -->
<g id="edge11" class="edge">
<title>identity&#45;&gt;cargo</title>
<path fill="none" stroke="#444444" d="M197.75,-1069.43C197.75,-1067.5 197.75,-1065.52 197.75,-1063.53"/>
<polygon fill="#444444" stroke="#444444" points="201.25,-1063.67 197.75,-1053.67 194.25,-1063.67 201.25,-1063.67"/>
</g>
<!-- toolchain -->
<g id="node13" class="node">
<title>toolchain</title>
<g id="a_node13"><a xlink:href="BUILD.md#one-build-in-time" xlink:title="toolchain: reads meson and ninja on PATH and ninja&#39;s version; writes nothing">
<path fill="#f2f2f2" stroke="#444444" d="M317.12,-992C317.12,-992 78.38,-992 78.38,-992 72.37,-992 66.38,-986 66.38,-980 66.38,-980 66.38,-962.25 66.38,-962.25 66.38,-956.25 72.38,-950.25 78.38,-950.25 78.38,-950.25 317.12,-950.25 317.12,-950.25 323.12,-950.25 329.12,-956.25 329.12,-962.25 329.12,-962.25 329.12,-980 329.12,-980 329.12,-986 323.12,-992 317.12,-992"/>
<text xml:space="preserve" text-anchor="middle" x="197.75" y="-978.5" font-family="Helvetica,sans-Serif" font-size="10.00">toolchain</text>
<text xml:space="preserve" text-anchor="middle" x="197.75" y="-967.25" font-family="Helvetica,sans-Serif" font-size="10.00">Checking the native toolchain (meson, ninja … or newer)</text>
<text xml:space="preserve" text-anchor="middle" x="197.75" y="-956" font-family="Helvetica,sans-Serif" font-size="10.00">2 refusal(s)</text>
</a>
</g>
</g>
<!-- cargo&#45;&gt;toolchain -->
<g id="edge12" class="edge">
<title>cargo&#45;&gt;toolchain</title>
<path fill="none" stroke="#444444" d="M197.75,-1009.68C197.75,-1007.75 197.75,-1005.77 197.75,-1003.78"/>
<polygon fill="#444444" stroke="#444444" points="201.25,-1003.92 197.75,-993.92 194.25,-1003.92 201.25,-1003.92"/>
</g>
<!-- configure -->
<g id="node14" class="node">
<title>configure</title>
<g id="a_node14"><a xlink:href="BUILD.md#one-build-in-time" xlink:title="configure: reads whether builddir/build.ninja exists, meson.build, meson.options and the two knobs as Meson options; a fresh setup also reads CFLAGS and the other flag variables; writes builddir/ configuration; meson configure records the two options and the policy assertions run at setup or at the regeneration the next compile triggers">
<path fill="#f2f2f2" stroke="#444444" d="M333.25,-932.25C333.25,-932.25 62.25,-932.25 62.25,-932.25 56.25,-932.25 50.25,-926.25 50.25,-920.25 50.25,-920.25 50.25,-902.5 50.25,-902.5 50.25,-896.5 56.25,-890.5 62.25,-890.5 62.25,-890.5 333.25,-890.5 333.25,-890.5 339.25,-890.5 345.25,-896.5 345.25,-902.5 345.25,-902.5 345.25,-920.25 345.25,-920.25 345.25,-926.25 339.25,-932.25 333.25,-932.25"/>
<text xml:space="preserve" text-anchor="middle" x="197.75" y="-918.75" font-family="Helvetica,sans-Serif" font-size="10.00">configure</text>
<text xml:space="preserve" text-anchor="middle" x="197.75" y="-907.5" font-family="Helvetica,sans-Serif" font-size="10.00">Configuring native build (meson configure, existing directory): …</text>
<text xml:space="preserve" text-anchor="middle" x="197.75" y="-896.25" font-family="Helvetica,sans-Serif" font-size="10.00">22 refusal(s)</text>
</a>
</g>
</g>
<!-- toolchain&#45;&gt;configure -->
<g id="edge13" class="edge">
<title>toolchain&#45;&gt;configure</title>
<path fill="none" stroke="#444444" d="M197.75,-949.93C197.75,-948 197.75,-946.02 197.75,-944.03"/>
<polygon fill="#444444" stroke="#444444" points="201.25,-944.17 197.75,-934.17 194.25,-944.17 201.25,-944.17"/>
</g>
<!-- compile -->
<g id="node15" class="node">
<title>compile</title>
<g id="a_node15"><a xlink:href="BUILD.md#one-build-in-time" xlink:title="compile: reads the native sources through builddir/; a changed option triggers regeneration, which runs the policy assertions first; writes builddir/ outputs and the Swift module cache under it">
<path fill="#f2f2f2" stroke="#444444" d="M257.88,-872.5C257.88,-872.5 137.62,-872.5 137.62,-872.5 131.62,-872.5 125.62,-866.5 125.62,-860.5 125.62,-860.5 125.62,-842.75 125.62,-842.75 125.62,-836.75 131.62,-830.75 137.62,-830.75 137.62,-830.75 257.88,-830.75 257.88,-830.75 263.88,-830.75 269.88,-836.75 269.88,-842.75 269.88,-842.75 269.88,-860.5 269.88,-860.5 269.88,-866.5 263.88,-872.5 257.88,-872.5"/>
<text xml:space="preserve" text-anchor="middle" x="197.75" y="-859" font-family="Helvetica,sans-Serif" font-size="10.00">compile</text>
<text xml:space="preserve" text-anchor="middle" x="197.75" y="-847.75" font-family="Helvetica,sans-Serif" font-size="10.00">Compiling native executables</text>
<text xml:space="preserve" text-anchor="middle" x="197.75" y="-836.5" font-family="Helvetica,sans-Serif" font-size="10.00">22 refusal(s)</text>
</a>
</g>
</g>
<!-- configure&#45;&gt;compile -->
<g id="edge14" class="edge">
<title>configure&#45;&gt;compile</title>
<path fill="none" stroke="#444444" d="M197.75,-890.18C197.75,-888.25 197.75,-886.27 197.75,-884.28"/>
<polygon fill="#444444" stroke="#444444" points="201.25,-884.42 197.75,-874.42 194.25,-884.42 201.25,-884.42"/>
</g>
<!-- native_check -->
<g id="node16" class="node">
<title>native_check</title>
<g id="a_node16"><a xlink:href="BUILD.md#one-build-in-time" xlink:title="native_check: reads Meson&#39;s introspection of builddir/, Ninja&#39;s dependency log, the identity inputs and the Meson outputs&#39; load commands; writes nothing">
<path fill="#f2f2f2" stroke="#444444" d="M375.25,-812.75C375.25,-812.75 20.25,-812.75 20.25,-812.75 14.25,-812.75 8.25,-806.75 8.25,-800.75 8.25,-800.75 8.25,-783 8.25,-783 8.25,-777 14.25,-771 20.25,-771 20.25,-771 375.25,-771 375.25,-771 381.25,-771 387.25,-777 387.25,-783 387.25,-783 387.25,-800.75 387.25,-800.75 387.25,-806.75 381.25,-812.75 375.25,-812.75"/>
<text xml:space="preserve" text-anchor="middle" x="197.75" y="-799.25" font-family="Helvetica,sans-Serif" font-size="10.00">native_check</text>
<text xml:space="preserve" text-anchor="middle" x="197.75" y="-788" font-family="Helvetica,sans-Serif" font-size="10.00">Checking the configured native source lists and the identity closure against the tree</text>
<text xml:space="preserve" text-anchor="middle" x="197.75" y="-776.75" font-family="Helvetica,sans-Serif" font-size="10.00">4 refusal(s)</text>
</a>
</g>
</g>
<!-- compile&#45;&gt;native_check -->
<g id="edge15" class="edge">
<title>compile&#45;&gt;native_check</title>
<path fill="none" stroke="#444444" d="M197.75,-830.43C197.75,-828.5 197.75,-826.52 197.75,-824.53"/>
<polygon fill="#444444" stroke="#444444" points="201.25,-824.67 197.75,-814.67 194.25,-824.67 201.25,-824.67"/>
</g>
<!-- assemble -->
<g id="node17" class="node">
<title>assemble</title>
<g id="a_node17"><a xlink:href="BUILD.md#one-build-in-time" xlink:title="assemble: reads Info.plist, the three Rust outputs, runner/augments/, dist/README.md and dist/AGENTS.md; writes the two documents under DIST_DIR; removes the previous app, ZIP and guide; the stamped Info.plist, the three Rust executables and the augments under the new app">
<path fill="#f2f2f2" stroke="#444444" d="M252.25,-753C252.25,-753 143.25,-753 143.25,-753 137.25,-753 131.25,-747 131.25,-741 131.25,-741 131.25,-723.25 131.25,-723.25 131.25,-717.25 137.25,-711.25 143.25,-711.25 143.25,-711.25 252.25,-711.25 252.25,-711.25 258.25,-711.25 264.25,-717.25 264.25,-723.25 264.25,-723.25 264.25,-741 264.25,-741 264.25,-747 258.25,-753 252.25,-753"/>
<text xml:space="preserve" text-anchor="middle" x="197.75" y="-739.5" font-family="Helvetica,sans-Serif" font-size="10.00">assemble</text>
<text xml:space="preserve" text-anchor="middle" x="197.75" y="-728.25" font-family="Helvetica,sans-Serif" font-size="10.00">Assembling app bundle: …</text>
<text xml:space="preserve" text-anchor="middle" x="197.75" y="-717" font-family="Helvetica,sans-Serif" font-size="10.00">2 refusal(s)</text>
</a>
</g>
</g>
<!-- native_check&#45;&gt;assemble -->
<g id="edge16" class="edge">
<title>native_check&#45;&gt;assemble</title>
<path fill="none" stroke="#444444" d="M197.75,-770.68C197.75,-768.75 197.75,-766.77 197.75,-764.78"/>
<polygon fill="#444444" stroke="#444444" points="201.25,-764.92 197.75,-754.92 194.25,-764.92 201.25,-764.92"/>
</g>
<!-- embed_client -->
<g id="node18" class="node">
<title>embed_client</title>
<g id="a_node18"><a xlink:href="BUILD.md#one-build-in-time" xlink:title="embed_client: reads builddir/pw&#45;runner&#45;client; writes Contents/MacOS/pw&#45;runner&#45;client and its dSYM in inspection builds">
<path fill="#e8f0fe" stroke="#444444" d="M210,-693.25C210,-693.25 93.5,-693.25 93.5,-693.25 87.5,-693.25 81.5,-687.25 81.5,-681.25 81.5,-681.25 81.5,-663.5 81.5,-663.5 81.5,-657.5 87.5,-651.5 93.5,-651.5 93.5,-651.5 210,-651.5 210,-651.5 216,-651.5 222,-657.5 222,-663.5 222,-663.5 222,-681.25 222,-681.25 222,-687.25 216,-693.25 210,-693.25"/>
<text xml:space="preserve" text-anchor="middle" x="151.75" y="-679.75" font-family="Helvetica,sans-Serif" font-size="10.00">embed_client</text>
<text xml:space="preserve" text-anchor="middle" x="151.75" y="-668.5" font-family="Helvetica,sans-Serif" font-size="10.00">Embedding PW runner client</text>
<text xml:space="preserve" text-anchor="middle" x="151.75" y="-657.25" font-family="Helvetica,sans-Serif" font-size="10.00">1 refusal(s)</text>
</a>
</g>
</g>
<!-- assemble&#45;&gt;embed_client -->
<g id="edge17" class="edge">
<title>assemble&#45;&gt;embed_client</title>
<path fill="none" stroke="#1f5fbf" d="M181.66,-710.93C179.5,-708.22 177.25,-705.39 175,-702.57"/>
<polygon fill="#1f5fbf" stroke="#1f5fbf" points="177.82,-700.48 168.85,-694.84 172.34,-704.85 177.82,-700.48"/>
</g>
<!-- skip_xpc -->
<g id="node20" class="node">
<title>skip_xpc</title>
<g id="a_node20"><a xlink:href="BUILD.md#one-build-in-time" xlink:title="skip_xpc: reads nothing; writes nothing">
<path fill="none" stroke="#444444" stroke-dasharray="5,2" d="M406.38,-630.62C406.38,-630.62 205.12,-630.62 205.12,-630.62 199.12,-630.62 193.12,-624.62 193.12,-618.62 193.12,-618.62 193.12,-606.62 193.12,-606.62 193.12,-600.62 199.12,-594.62 205.12,-594.62 205.12,-594.62 406.38,-594.62 406.38,-594.62 412.38,-594.62 418.38,-600.62 418.38,-606.62 418.38,-606.62 418.38,-618.62 418.38,-618.62 418.38,-624.62 412.38,-630.62 406.38,-630.62"/>
<text xml:space="preserve" text-anchor="middle" x="305.75" y="-614.38" font-family="Helvetica,sans-Serif" font-size="10.00">skip_xpc</text>
<text xml:space="preserve" text-anchor="middle" x="305.75" y="-603.12" font-family="Helvetica,sans-Serif" font-size="10.00">Skipping embedded XPC build (BUILD_XPC=0)</text>
</a>
</g>
</g>
<!-- assemble&#45;&gt;skip_xpc -->
<g id="edge19" class="edge">
<title>assemble&#45;&gt;skip_xpc</title>
<path fill="none" stroke="#444444" stroke-dasharray="5,2" d="M216.32,-710.93C234.55,-691.09 262.44,-660.75 282.22,-639.23"/>
<polygon fill="#444444" stroke="#444444" points="284.67,-641.73 288.86,-632 279.51,-637 284.67,-641.73"/>
</g>
<!-- embed_services -->
<g id="node19" class="node">
<title>embed_services</title>
<g id="a_node19"><a xlink:href="BUILD.md#one-build-in-time" xlink:title="embed_services: reads each service&#39;s Info.plist and builddir/ host, the worker and the validator; writes each service bundle: its stamped Info.plist, the host with its dSYM in inspection builds, the worker and the validator">
<path fill="#e8f0fe" stroke="#444444" d="M167.5,-633.5C167.5,-633.5 12,-633.5 12,-633.5 6,-633.5 0,-627.5 0,-621.5 0,-621.5 0,-603.75 0,-603.75 0,-597.75 6,-591.75 12,-591.75 12,-591.75 167.5,-591.75 167.5,-591.75 173.5,-591.75 179.5,-597.75 179.5,-603.75 179.5,-603.75 179.5,-621.5 179.5,-621.5 179.5,-627.5 173.5,-633.5 167.5,-633.5"/>
<text xml:space="preserve" text-anchor="middle" x="89.75" y="-620" font-family="Helvetica,sans-Serif" font-size="10.00">embed_services</text>
<text xml:space="preserve" text-anchor="middle" x="89.75" y="-608.75" font-family="Helvetica,sans-Serif" font-size="10.00">Embedding PWRunner XPC services</text>
<text xml:space="preserve" text-anchor="middle" x="89.75" y="-597.5" font-family="Helvetica,sans-Serif" font-size="10.00">3 refusal(s)</text>
</a>
</g>
</g>
<!-- embed_client&#45;&gt;embed_services -->
<g id="edge18" class="edge">
<title>embed_client&#45;&gt;embed_services</title>
<path fill="none" stroke="#1f5fbf" d="M130.07,-651.18C126.78,-648.12 123.34,-644.91 119.92,-641.72"/>
<polygon fill="#1f5fbf" stroke="#1f5fbf" points="122.34,-639.2 112.63,-634.94 117.57,-644.32 122.34,-639.2"/>
</g>
<!-- presign -->
<g id="node21" class="node">
<title>presign</title>
<g id="a_node21"><a xlink:href="BUILD.md#one-build-in-time" xlink:title="presign: reads the identity inputs and copies, and whether PolicyWitness.entitlements exists; writes nothing">
<path fill="#f2f2f2" stroke="#444444" d="M305.12,-573.75C305.12,-573.75 90.38,-573.75 90.38,-573.75 84.38,-573.75 78.37,-567.75 78.37,-561.75 78.37,-561.75 78.37,-544 78.37,-544 78.37,-538 84.37,-532 90.37,-532 90.37,-532 305.12,-532 305.12,-532 311.12,-532 317.12,-538 317.12,-544 317.12,-544 317.12,-561.75 317.12,-561.75 317.12,-567.75 311.12,-573.75 305.12,-573.75"/>
<text xml:space="preserve" text-anchor="middle" x="197.75" y="-560.25" font-family="Helvetica,sans-Serif" font-size="10.00">presign</text>
<text xml:space="preserve" text-anchor="middle" x="197.75" y="-549" font-family="Helvetica,sans-Serif" font-size="10.00">Checking host/worker identity again, before signing</text>
<text xml:space="preserve" text-anchor="middle" x="197.75" y="-537.75" font-family="Helvetica,sans-Serif" font-size="10.00">2 refusal(s)</text>
</a>
</g>
</g>
<!-- embed_services&#45;&gt;presign -->
<g id="edge20" class="edge">
<title>embed_services&#45;&gt;presign</title>
<path fill="none" stroke="#1f5fbf" d="M127.83,-591.26C134.84,-587.51 142.26,-583.55 149.53,-579.66"/>
<polygon fill="#1f5fbf" stroke="#1f5fbf" points="151.15,-582.76 158.32,-574.96 147.85,-576.59 151.15,-582.76"/>
</g>
<!-- skip_xpc&#45;&gt;presign -->
<g id="edge21" class="edge">
<title>skip_xpc&#45;&gt;presign</title>
<path fill="none" stroke="#444444" stroke-dasharray="5,2" d="M273.05,-594.14C264.39,-589.51 254.86,-584.41 245.57,-579.45"/>
<polygon fill="#444444" stroke="#444444" points="247.45,-576.48 236.98,-574.85 244.15,-582.65 247.45,-576.48"/>
</g>
<!-- sign_tools -->
<g id="node22" class="node">
<title>sign_tools</title>
<g id="a_node22"><a xlink:href="BUILD.md#one-build-in-time" xlink:title="sign_tools: reads the copied top&#45;level helpers; writes signatures on the top&#45;level helpers">
<path fill="#f2f2f2" stroke="#444444" d="M274.75,-514C274.75,-514 120.75,-514 120.75,-514 114.75,-514 108.75,-508 108.75,-502 108.75,-502 108.75,-484.25 108.75,-484.25 108.75,-478.25 114.75,-472.25 120.75,-472.25 120.75,-472.25 274.75,-472.25 274.75,-472.25 280.75,-472.25 286.75,-478.25 286.75,-484.25 286.75,-484.25 286.75,-502 286.75,-502 286.75,-508 280.75,-514 274.75,-514"/>
<text xml:space="preserve" text-anchor="middle" x="197.75" y="-500.5" font-family="Helvetica,sans-Serif" font-size="10.00">sign_tools</text>
<text xml:space="preserve" text-anchor="middle" x="197.75" y="-489.25" font-family="Helvetica,sans-Serif" font-size="10.00">Codesigning embedded MacOS tools</text>
<text xml:space="preserve" text-anchor="middle" x="197.75" y="-478" font-family="Helvetica,sans-Serif" font-size="10.00">3 refusal(s)</text>
</a>
</g>
</g>
<!-- presign&#45;&gt;sign_tools -->
<g id="edge22" class="edge">
<title>presign&#45;&gt;sign_tools</title>
<path fill="none" stroke="#444444" d="M197.75,-531.68C197.75,-529.75 197.75,-527.77 197.75,-525.78"/>
<polygon fill="#444444" stroke="#444444" points="201.25,-525.92 197.75,-515.92 194.25,-525.92 201.25,-525.92"/>
</g>
<!-- sign_services -->
<g id="node23" class="node">
<title>sign_services</title>
<g id="a_node23"><a xlink:href="BUILD.md#one-build-in-time" xlink:title="sign_services: reads each service&#39;s Entitlements.plist and bundle; writes signatures on the nested helpers, then each service seal">
<path fill="#e8f0fe" stroke="#444444" d="M220.62,-454.25C220.62,-454.25 62.87,-454.25 62.87,-454.25 56.88,-454.25 50.88,-448.25 50.88,-442.25 50.88,-442.25 50.88,-424.5 50.88,-424.5 50.88,-418.5 56.88,-412.5 62.88,-412.5 62.88,-412.5 220.62,-412.5 220.62,-412.5 226.62,-412.5 232.62,-418.5 232.62,-424.5 232.62,-424.5 232.62,-442.25 232.62,-442.25 232.62,-448.25 226.62,-454.25 220.62,-454.25"/>
<text xml:space="preserve" text-anchor="middle" x="141.75" y="-440.75" font-family="Helvetica,sans-Serif" font-size="10.00">sign_services</text>
<text xml:space="preserve" text-anchor="middle" x="141.75" y="-429.5" font-family="Helvetica,sans-Serif" font-size="10.00">Codesigning embedded XPC services</text>
<text xml:space="preserve" text-anchor="middle" x="141.75" y="-418.25" font-family="Helvetica,sans-Serif" font-size="10.00">5 refusal(s)</text>
</a>
</g>
</g>
<!-- sign_tools&#45;&gt;sign_services -->
<g id="edge23" class="edge">
<title>sign_tools&#45;&gt;sign_services</title>
<path fill="none" stroke="#1f5fbf" d="M178.16,-471.93C175.28,-468.95 172.27,-465.85 169.26,-462.75"/>
<polygon fill="#1f5fbf" stroke="#1f5fbf" points="171.95,-460.49 162.47,-455.75 166.92,-465.36 171.95,-460.49"/>
</g>
<!-- evidence -->
<g id="node24" class="node">
<title>evidence</title>
<g id="a_node24"><a xlink:href="BUILD.md#one-build-in-time" xlink:title="evidence: reads the signed bytes, entitlements and exported symbols of the helpers, services and augments; writes Contents/Resources/Evidence/manifest.json and symbols.json">
<path fill="#f2f2f2" stroke="#444444" d="M281.5,-394.5C281.5,-394.5 114,-394.5 114,-394.5 108,-394.5 102,-388.5 102,-382.5 102,-382.5 102,-364.75 102,-364.75 102,-358.75 108,-352.75 114,-352.75 114,-352.75 281.5,-352.75 281.5,-352.75 287.5,-352.75 293.5,-358.75 293.5,-364.75 293.5,-364.75 293.5,-382.5 293.5,-382.5 293.5,-388.5 287.5,-394.5 281.5,-394.5"/>
<text xml:space="preserve" text-anchor="middle" x="197.75" y="-381" font-family="Helvetica,sans-Serif" font-size="10.00">evidence</text>
<text xml:space="preserve" text-anchor="middle" x="197.75" y="-369.75" font-family="Helvetica,sans-Serif" font-size="10.00">Writing evidence manifest (signed BOM)</text>
<text xml:space="preserve" text-anchor="middle" x="197.75" y="-358.5" font-family="Helvetica,sans-Serif" font-size="10.00">1 refusal(s)</text>
</a>
</g>
</g>
<!-- sign_tools&#45;&gt;evidence -->
<g id="edge25" class="edge">
<title>sign_tools&#45;&gt;evidence</title>
<path fill="none" stroke="#444444" stroke-dasharray="5,2" d="M226.77,-471.98C232.04,-466.85 236.8,-460.89 239.75,-454.25 247.29,-437.3 247.29,-429.45 239.75,-412.5 238.32,-409.28 236.47,-406.23 234.34,-403.35"/>
<polygon fill="#444444" stroke="#444444" points="237.01,-401.09 227.77,-395.9 231.76,-405.72 237.01,-401.09"/>
</g>
<!-- sign_services&#45;&gt;evidence -->
<g id="edge24" class="edge">
<title>sign_services&#45;&gt;evidence</title>
<path fill="none" stroke="#1f5fbf" d="M161.34,-412.18C164.22,-409.2 167.23,-406.1 170.24,-403"/>
<polygon fill="#1f5fbf" stroke="#1f5fbf" points="172.58,-405.61 177.03,-396 167.55,-400.74 172.58,-405.61"/>
</g>
<!-- seal -->
<g id="node25" class="node">
<title>seal</title>
<g id="a_node25"><a xlink:href="BUILD.md#one-build-in-time" xlink:title="seal: reads PolicyWitness.entitlements; writes the app seal over everything under Contents/">
<path fill="#f2f2f2" stroke="#444444" d="M245.88,-334.75C245.88,-334.75 149.62,-334.75 149.62,-334.75 143.62,-334.75 137.62,-328.75 137.62,-322.75 137.62,-322.75 137.62,-305 137.62,-305 137.62,-299 143.62,-293 149.62,-293 149.62,-293 245.88,-293 245.88,-293 251.88,-293 257.88,-299 257.88,-305 257.88,-305 257.88,-322.75 257.88,-322.75 257.88,-328.75 251.88,-334.75 245.88,-334.75"/>
<text xml:space="preserve" text-anchor="middle" x="197.75" y="-321.25" font-family="Helvetica,sans-Serif" font-size="10.00">seal</text>
<text xml:space="preserve" text-anchor="middle" x="197.75" y="-310" font-family="Helvetica,sans-Serif" font-size="10.00">Codesigning app bundle</text>
<text xml:space="preserve" text-anchor="middle" x="197.75" y="-298.75" font-family="Helvetica,sans-Serif" font-size="10.00">1 refusal(s)</text>
</a>
</g>
</g>
<!-- evidence&#45;&gt;seal -->
<g id="edge26" class="edge">
<title>evidence&#45;&gt;seal</title>
<path fill="none" stroke="#444444" d="M197.75,-352.43C197.75,-350.5 197.75,-348.52 197.75,-346.53"/>
<polygon fill="#444444" stroke="#444444" points="201.25,-346.67 197.75,-336.67 194.25,-346.67 201.25,-346.67"/>
</g>
<!-- verify -->
<g id="node26" class="node">
<title>verify</title>
<g id="a_node26"><a xlink:href="BUILD.md#one-build-in-time" xlink:title="verify: reads the sealed app; writes nothing">
<path fill="#f2f2f2" stroke="#444444" d="M266.88,-275C266.88,-275 128.62,-275 128.62,-275 122.62,-275 116.62,-269 116.62,-263 116.62,-263 116.62,-245.25 116.62,-245.25 116.62,-239.25 122.62,-233.25 128.62,-233.25 128.62,-233.25 266.88,-233.25 266.88,-233.25 272.88,-233.25 278.88,-239.25 278.88,-245.25 278.88,-245.25 278.88,-263 278.88,-263 278.88,-269 272.88,-275 266.88,-275"/>
<text xml:space="preserve" text-anchor="middle" x="197.75" y="-261.5" font-family="Helvetica,sans-Serif" font-size="10.00">verify</text>
<text xml:space="preserve" text-anchor="middle" x="197.75" y="-250.25" font-family="Helvetica,sans-Serif" font-size="10.00">Verifying signature + entitlements</text>
<text xml:space="preserve" text-anchor="middle" x="197.75" y="-239" font-family="Helvetica,sans-Serif" font-size="10.00">1 refusal(s)</text>
</a>
</g>
</g>
<!-- seal&#45;&gt;verify -->
<g id="edge27" class="edge">
<title>seal&#45;&gt;verify</title>
<path fill="none" stroke="#444444" d="M197.75,-292.68C197.75,-290.75 197.75,-288.77 197.75,-286.78"/>
<polygon fill="#444444" stroke="#444444" points="201.25,-286.92 197.75,-276.92 194.25,-286.92 201.25,-286.92"/>
</g>
<!-- signer -->
<g id="node27" class="node">
<title>signer</title>
<g id="a_node27"><a xlink:href="BUILD.md#one-build-in-time" xlink:title="signer: reads every regular file under the app&#39;s and each service&#39;s Contents/MacOS; writes nothing">
<path fill="#f2f2f2" stroke="#444444" d="M271.38,-215.25C271.38,-215.25 124.13,-215.25 124.13,-215.25 118.12,-215.25 112.12,-209.25 112.12,-203.25 112.12,-203.25 112.12,-185.5 112.12,-185.5 112.12,-179.5 118.12,-173.5 124.12,-173.5 124.12,-173.5 271.38,-173.5 271.38,-173.5 277.38,-173.5 283.38,-179.5 283.38,-185.5 283.38,-185.5 283.38,-203.25 283.38,-203.25 283.38,-209.25 277.38,-215.25 271.38,-215.25"/>
<text xml:space="preserve" text-anchor="middle" x="197.75" y="-201.75" font-family="Helvetica,sans-Serif" font-size="10.00">signer</text>
<text xml:space="preserve" text-anchor="middle" x="197.75" y="-190.5" font-family="Helvetica,sans-Serif" font-size="10.00">Checking every executable&#39;s signer</text>
<text xml:space="preserve" text-anchor="middle" x="197.75" y="-179.25" font-family="Helvetica,sans-Serif" font-size="10.00">1 refusal(s)</text>
</a>
</g>
</g>
<!-- verify&#45;&gt;signer -->
<g id="edge28" class="edge">
<title>verify&#45;&gt;signer</title>
<path fill="none" stroke="#444444" d="M197.75,-232.93C197.75,-231 197.75,-229.02 197.75,-227.03"/>
<polygon fill="#444444" stroke="#444444" points="201.25,-227.17 197.75,-217.17 194.25,-227.17 201.25,-227.17"/>
</g>
<!-- sign_observer -->
<g id="node28" class="node">
<title>sign_observer</title>
<g id="a_node28"><a xlink:href="BUILD.md#one-build-in-time" xlink:title="sign_observer: reads controller/target/release/sandbox&#45;log&#45;observer; writes that executable&#39;s signature, in place">
<path fill="#f2f2f2" stroke="#444444" d="M285.62,-155.5C285.62,-155.5 109.87,-155.5 109.87,-155.5 103.88,-155.5 97.88,-149.5 97.88,-143.5 97.88,-143.5 97.88,-125.75 97.88,-125.75 97.88,-119.75 103.88,-113.75 109.88,-113.75 109.88,-113.75 285.62,-113.75 285.62,-113.75 291.62,-113.75 297.62,-119.75 297.62,-125.75 297.62,-125.75 297.62,-143.5 297.62,-143.5 297.62,-149.5 291.62,-155.5 285.62,-155.5"/>
<text xml:space="preserve" text-anchor="middle" x="197.75" y="-142" font-family="Helvetica,sans-Serif" font-size="10.00">sign_observer</text>
<text xml:space="preserve" text-anchor="middle" x="197.75" y="-130.75" font-family="Helvetica,sans-Serif" font-size="10.00">Codesigning observer tool (not embedded)</text>
<text xml:space="preserve" text-anchor="middle" x="197.75" y="-119.5" font-family="Helvetica,sans-Serif" font-size="10.00">3 refusal(s)</text>
</a>
</g>
</g>
<!-- signer&#45;&gt;sign_observer -->
<g id="edge29" class="edge">
<title>signer&#45;&gt;sign_observer</title>
<path fill="none" stroke="#444444" d="M197.75,-173.18C197.75,-171.25 197.75,-169.27 197.75,-167.28"/>
<polygon fill="#444444" stroke="#444444" points="201.25,-167.42 197.75,-157.42 194.25,-167.42 201.25,-167.42"/>
</g>
<!-- guide -->
<g id="node29" class="node">
<title>guide</title>
<g id="a_node29"><a xlink:href="BUILD.md#one-build-in-time" xlink:title="guide: reads docs/PolicyWitness.md and its inputs; writes PolicyWitness.md under DIST_DIR">
<path fill="#f2f2f2" stroke="#444444" d="M254.12,-95.75C254.12,-95.75 141.38,-95.75 141.38,-95.75 135.38,-95.75 129.38,-89.75 129.38,-83.75 129.38,-83.75 129.38,-66 129.38,-66 129.38,-60 135.38,-54 141.38,-54 141.38,-54 254.12,-54 254.12,-54 260.12,-54 266.12,-60 266.12,-66 266.12,-66 266.12,-83.75 266.12,-83.75 266.12,-89.75 260.12,-95.75 254.12,-95.75"/>
<text xml:space="preserve" text-anchor="middle" x="197.75" y="-82.25" font-family="Helvetica,sans-Serif" font-size="10.00">guide</text>
<text xml:space="preserve" text-anchor="middle" x="197.75" y="-71" font-family="Helvetica,sans-Serif" font-size="10.00">Staging checked user guide</text>
<text xml:space="preserve" text-anchor="middle" x="197.75" y="-59.75" font-family="Helvetica,sans-Serif" font-size="10.00">1 refusal(s)</text>
</a>
</g>
</g>
<!-- sign_observer&#45;&gt;guide -->
<g id="edge30" class="edge">
<title>sign_observer&#45;&gt;guide</title>
<path fill="none" stroke="#444444" d="M197.75,-113.43C197.75,-111.5 197.75,-109.52 197.75,-107.53"/>
<polygon fill="#444444" stroke="#444444" points="201.25,-107.67 197.75,-97.67 194.25,-107.67 201.25,-107.67"/>
</g>
<!-- zip -->
<g id="node30" class="node">
<title>zip</title>
<g id="a_node30"><a xlink:href="BUILD.md#one-build-in-time" xlink:title="zip: reads the sealed app; writes PolicyWitness.zip under DIST_DIR">
<path fill="#f2f2f2" stroke="#444444" d="M264.62,-36C264.62,-36 130.88,-36 130.88,-36 124.88,-36 118.88,-30 118.88,-24 118.88,-24 118.88,-12 118.88,-12 118.88,-6 124.88,0 130.88,0 130.88,0 264.62,0 264.62,0 270.62,0 276.62,-6 276.62,-12 276.62,-12 276.62,-24 276.62,-24 276.62,-30 270.62,-36 264.62,-36"/>
<text xml:space="preserve" text-anchor="middle" x="197.75" y="-19.75" font-family="Helvetica,sans-Serif" font-size="10.00">zip</text>
<text xml:space="preserve" text-anchor="middle" x="197.75" y="-8.5" font-family="Helvetica,sans-Serif" font-size="10.00">Creating zip (for notarization): …</text>
</a>
</g>
</g>
<!-- guide&#45;&gt;zip -->
<g id="edge31" class="edge">
<title>guide&#45;&gt;zip</title>
<path fill="none" stroke="#444444" d="M197.75,-53.75C197.75,-51.78 197.75,-49.74 197.75,-47.7"/>
<polygon fill="#444444" stroke="#444444" points="201.25,-47.74 197.75,-37.74 194.25,-47.74 201.25,-47.74"/>
</g>
</g>
</svg>
